<svg xmlns="http://www.w3.org/2000/svg">
  <symbol viewBox="0 0 54 54" id="level">
    <path d="M24.75 26.912L27 29.1562L30.9375 25.2288M27 17C24.6787 18.187 22.0926 18.8181 19.449 18.8181C19.0921 18.8181 18.7363 18.8066 18.382 18.7838C17.9246 20.8703 17.874 23.0414 18.2515 25.1765C18.9272 28.9986 20.9314 32.4612 23.9122 34.9559C24.868 35.7558 25.9045 36.4398 27 37C28.0955 36.4398 29.132 35.7558 30.0878 34.9559C33.0686 32.4612 35.0728 28.9986 35.7485 25.1765C36.126 23.0414 36.0754 20.8703 35.618 18.7838C35.2637 18.8066 34.9078 18.8181 34.5509 18.8181C31.9074 18.8181 29.3212 18.187 27 17Z" stroke="#0266C1"/>
    <rect x="0.5" y="0.5" width="53" height="53" stroke="#0266C1"/>
  </symbol>
  <symbol viewBox="0 0 54 54" id="crown">
    <path d="M33.6867 36H20.3133M37 23.1103L34.0746 32.8049H19.9254L17 23.1103L22.7717 26.6142L27 18L31.2283 26.6142L37 23.1103Z" stroke="#0266C1"/>
    <rect x="0.5" y="0.5" width="53" height="53" stroke="#0266C1"/>
  </symbol>
  <symbol viewBox="0 0 54 54" id="boots">
    <path d="M36.7153 30.2434C37.3367 28.1487 36.8254 25.7711 36.2821 24.1236C36.2785 24.0599 36.2602 23.9981 36.2288 23.9439C36.0442 23.4088 35.8737 22.9692 35.7281 22.6519C35.9961 22.5371 36.1729 22.2591 36.1755 21.9486V18.7645C36.1755 18.3423 35.8576 18 35.4654 18H26.7408C26.5447 17.9996 26.3854 18.1704 26.3851 18.3816C26.3851 18.3895 26.3853 18.3973 26.3857 18.4052C26.5064 20.6987 26.3502 22.2544 25.8992 23.3515C25.8903 23.3623 25.882 23.3739 25.8744 23.3859C25.873 23.4049 25.873 23.4241 25.8744 23.4432C25.7022 23.8425 25.4694 24.2081 25.1855 24.525L25.1535 24.5479C25.1535 24.5479 25.1535 24.5479 25.1535 24.5746C24.7372 25.002 24.2571 25.3509 23.7332 25.6067C22.8203 26.0427 21.8835 26.418 20.928 26.7305L20.7469 26.7955C17.4268 27.9805 16.9936 30.1287 17.0007 31.2066C16.9998 31.2219 16.9998 31.2372 17.0007 31.2525V33.9817C17.0012 34.1146 17.0657 34.2376 17.1711 34.3066C17.9848 34.8396 18.8631 35.2486 19.781 35.5222C19.9698 35.5793 20.1659 35.4609 20.219 35.2577C20.229 35.2194 20.2334 35.1797 20.232 35.1399V35.052H20.754V35.4343C20.7517 35.6236 20.8786 35.7862 21.0522 35.8165C21.3612 35.87 21.6701 35.9121 21.9719 35.9388C22.0708 35.9478 22.1687 35.9117 22.2418 35.8395C22.3149 35.7665 22.3561 35.6639 22.3554 35.5566V35.075H22.8774V35.6178C22.8774 35.8288 23.0364 36 23.2325 36C23.5308 36 23.8291 36 24.1486 35.9541C24.3336 35.9382 24.4759 35.7716 24.4753 35.5719V35.075H24.9973V35.4113C24.9948 35.6224 25.1517 35.7958 25.3478 35.7985C25.3683 35.7988 25.3889 35.7972 25.4092 35.7936C26.061 35.6861 26.7035 35.5212 27.3302 35.3005L27.3871 35.2737C29.8727 33.7447 31.4493 35.0023 31.5132 35.0559C31.5752 35.1076 31.6513 35.1358 31.7298 35.1361H32.1701C32.3662 35.1361 32.5252 34.965 32.5252 34.7539V34.1079H33.033V34.7462C33.033 34.9573 33.192 35.1285 33.3881 35.1285H34.5315C34.7276 35.1285 34.8866 34.9573 34.8866 34.7462V34.1079H35.4121V34.7462C35.4121 34.9573 35.5711 35.1285 35.7672 35.1285H36.6443C36.8404 35.1285 36.9993 34.9573 36.9993 34.7462V30.6256C37.0028 30.4411 36.8833 30.2803 36.7153 30.2434ZM28.289 18.7721H35.4476V21.9371H28.289V18.7721ZM23.8255 26.3941L23.8291 26.4171C24.1201 26.6715 24.3888 26.9543 24.6316 27.2618C24.5672 27.3771 24.5339 27.5095 24.5357 27.6441C24.5332 28.0473 24.8349 28.3763 25.2095 28.3789C25.584 28.3815 25.8896 28.0568 25.8921 27.6536C25.8944 27.2737 25.6257 26.9555 25.2743 26.9216C25.0497 26.592 24.7938 26.2884 24.5108 26.0157C24.8281 25.8213 25.1267 25.5934 25.4021 25.3353C25.7465 25.6831 26.0669 26.0574 26.3608 26.4553C26.2373 26.836 26.4238 27.2523 26.7774 27.3854C27.131 27.5183 27.5178 27.3176 27.6414 26.9369C27.7649 26.5563 27.5784 26.1399 27.2248 26.0069C27.1515 25.9793 27.0742 25.9655 26.9965 25.966H26.9112C26.5998 25.5439 26.2604 25.1466 25.8957 24.7772C26.0649 24.5529 26.2147 24.3124 26.3431 24.0586C26.8928 24.3667 27.4241 24.7113 27.9339 25.0907C27.9304 25.4981 28.2344 25.8314 28.6129 25.8352C28.9914 25.839 29.301 25.5117 29.3045 25.1043C29.308 24.6969 29.004 24.3635 28.6255 24.3598C28.5174 24.3587 28.4106 24.3851 28.3138 24.437C27.7773 24.046 27.2187 23.6911 26.6414 23.3744C27.0284 22.2659 27.1953 20.7942 27.1172 18.7874H27.5824V21.9524C27.5824 22.3747 27.9003 22.7169 28.2925 22.7169H34.9469C35.0392 22.9195 35.1955 23.2712 35.3659 23.7299H35.2203C33.0632 23.7467 31.3271 25.6427 31.3427 27.9648C31.3515 29.2844 31.9353 30.5229 32.9194 31.3098C30.0467 32.124 25.7252 33.0911 22.0891 32.8388C22.7602 29.9529 21.9577 28.1754 21.4357 27.3956C22.2486 27.1086 23.0463 26.7743 23.8255 26.3941ZM20.722 27.6135C21.1055 28.099 22.1069 29.7312 21.3718 32.7318C20.0923 32.6235 18.8497 32.2193 17.7286 31.5468C17.7159 31.4595 17.7076 31.3714 17.7037 31.2831V31.2563C17.6753 30.4421 17.9594 28.68 20.722 27.6135ZM36.1223 34.364V33.7256C36.1223 33.5145 35.9633 33.3434 35.7672 33.3434H34.535C34.3389 33.3434 34.1799 33.5145 34.1799 33.7256V34.364H33.7432V33.7256C33.7432 33.5145 33.5842 33.3434 33.3881 33.3434H32.163C31.9669 33.3434 31.8079 33.5145 31.8079 33.7256V34.3487C31.325 34.0238 29.5602 33.0796 27.0568 34.5857C26.6114 34.7439 26.1572 34.8716 25.6968 34.9679V34.7042C25.6968 34.4931 25.5378 34.3219 25.3417 34.3219H24.1167C23.9206 34.3219 23.7616 34.4931 23.7616 34.7042V35.2279H23.5805V34.6927C23.5805 34.4816 23.4215 34.3105 23.2254 34.3105H21.9932C21.7971 34.3105 21.6381 34.4816 21.6381 34.6927V35.1476L21.457 35.1208V34.6927C21.457 34.4816 21.2981 34.3105 21.102 34.3105H19.8698C19.6892 34.3091 19.5364 34.4538 19.5147 34.6468C18.8845 34.4235 18.2776 34.1301 17.7037 33.7715V32.4031C19.2519 33.286 21.2546 33.6186 23.3852 33.6186C29.0453 33.6186 35.5222 31.2869 36.2856 31.0079L36.2892 34.364H36.1223ZM35.9483 30.3313C35.6465 30.4383 34.9043 30.7135 33.8781 31.0079C32.2894 30.1801 31.6248 28.1228 32.3937 26.4125C32.9197 25.2427 34.0132 24.4917 35.2203 24.4714C35.3603 24.4693 35.5003 24.477 35.6394 24.4944L35.6429 24.5058C36.1649 26.1266 36.6336 28.4392 35.9483 30.3313Z" fill="#0266C1"/>
    <path d="M29.6564 19.2347C29.0857 19.2347 28.6231 19.7327 28.6231 20.347C28.625 20.9605 29.0865 21.4573 29.6564 21.4594C30.227 21.4594 30.6897 20.9613 30.6897 20.347C30.6897 19.7327 30.2271 19.2347 29.6564 19.2347ZM29.6564 20.6949C29.4779 20.6949 29.3332 20.5392 29.3332 20.347C29.3332 20.1549 29.4779 19.9992 29.6564 19.9992C29.8348 19.9992 29.9795 20.1549 29.9795 20.347C29.9795 20.5392 29.8348 20.6949 29.6564 20.6949Z" fill="#0266C1"/>
    <rect x="0.5" y="0.5" width="53" height="53" stroke="#0266C1"/>
  </symbol>
  <symbol viewBox="0 0 54 54" id="path">
    <g clip-path="url(#clip0_131_2742)">
      <path d="M34.1429 24.7674H28.7857C27.1091 24.7674 25.75 26.1366 25.75 27.8256C25.75 29.5145 27.1091 30.8837 28.7857 30.8837H31.1071C32.7837 30.8837 34.1429 32.2529 34.1429 33.9419C34.1429 35.6308 32.7837 37 31.1071 37H19.8571M22.7143 31.9302C22.7143 30.3406 21.4351 29.0519 19.8571 29.0519C18.2792 29.0519 17 30.3406 17 31.9302V32.0384C17 32.6695 17.1985 33.2845 17.567 33.7949L19.8515 36.9593C19.8543 36.9632 19.86 36.9632 19.8628 36.9593L22.1473 33.7949C22.5158 33.2845 22.7143 32.6695 22.7143 32.0384V31.9302ZM20.4095 30.7454L20.4266 30.7535C20.7724 30.9183 21.0245 31.2332 21.1111 31.6086C21.1987 31.9881 21.1046 32.3904 20.8608 32.6929C20.6196 32.9921 20.2548 33.1691 19.8723 33.1691H19.842C19.4594 33.1691 19.0946 32.9921 18.8535 32.6929C18.6097 32.3904 18.5156 31.9881 18.6032 31.6086C18.6898 31.2332 18.9419 30.9183 19.2877 30.7535L19.3048 30.7454C19.6545 30.5788 20.0598 30.5788 20.4095 30.7454ZM37 19.8985C37 18.3089 35.7208 17 34.1429 17C32.5649 17 31.2857 18.3089 31.2857 19.8985C31.2857 20.5234 31.4857 21.1384 31.8561 21.6397L34.1372 24.7277C34.14 24.7315 34.1457 24.7315 34.1485 24.7277L36.4297 21.6397C36.8 21.1384 37 20.5234 37 19.8985ZM34.6875 18.6514L34.7262 18.6694C35.0631 18.8263 35.3099 19.1302 35.3957 19.4939C35.4838 19.8669 35.3925 20.26 35.1492 20.5549L35.137 20.5697C34.8999 20.8573 34.548 21.0236 34.1769 21.0236H34.1088C33.7377 21.0236 33.3858 20.8573 33.1487 20.5697L33.1365 20.5549C32.8932 20.26 32.8019 19.8669 32.89 19.4939C32.9758 19.1302 33.2226 18.8263 33.5595 18.6694L33.5983 18.6514C33.9438 18.4905 34.342 18.4905 34.6875 18.6514Z" stroke="#0266C1" stroke-linecap="round"/>
    </g>
    <rect x="0.5" y="0.5" width="53" height="53" stroke="#0266C1"/>
    <defs>
      <clipPath id="clip0_131_2742">
        <rect width="22" height="22" fill="white" transform="translate(16 16)"/>
      </clipPath>
    </defs>
  </symbol>
  <symbol viewBox="0 0 54 54" id="leaf">
    <path d="M26.6903 32.2442C26.0125 29.3813 24.0195 26.9718 21.2754 25.6977C19.924 25.0703 18.4628 24.7518 17 24.7424C17.0856 26.771 17.8343 28.7457 19.1753 30.367C21.0604 32.646 23.9121 33.9803 26.933 33.9998C26.9083 33.4135 26.828 32.8259 26.6903 32.2442ZM26.6903 32.2442C26.1339 29.894 24.6911 27.8494 22.6741 26.4875C22.7081 26.2845 22.749 26.0818 22.7968 25.8799C23.3703 23.4577 24.8852 21.36 27 20C29.1147 21.36 30.6297 23.4577 31.2031 25.8799C31.2509 26.0818 31.2918 26.2845 31.3258 26.4875C29.3088 27.8493 27.8661 29.894 27.3097 32.2442M26.6903 32.2442C26.8279 32.8257 26.9082 33.4131 26.933 33.9992C26.9748 33.9997 27.0166 34 27.0585 34C27.9054 34 28.7394 33.8966 29.5431 33.698C29.5477 33.692 29.5522 33.6859 29.5567 33.6799C28.752 33.8849 27.9162 33.9943 27.067 33.9998M27.3097 32.2442C27.9875 29.3813 29.9805 26.9718 32.7246 25.6977C34.076 25.0703 35.5372 24.7518 37 24.7424C36.9144 26.771 36.1657 28.7457 34.8247 30.367C32.9396 32.646 30.0879 33.9803 27.067 33.9998M27.3097 32.2442C27.172 32.8259 27.0917 33.4135 27.067 33.9998" stroke="#0266C1" stroke-linecap="round" stroke-linejoin="round"/>
    <rect x="0.5" y="0.5" width="53" height="53" stroke="#0266C1"/>
  </symbol>
</svg>
