<svg xmlns="http://www.w3.org/2000/svg">
  <symbol viewBox="0 0 26 26" id="phone">
    <g clip-path="url(#clip0_248_2060)">
      <path d="M22.8368 23.6885C22.4584 24.4342 21.6789 24.8974 20.8502 24.8067C20.494 24.7677 20.1382 24.72 19.783 24.6636C15.1541 23.9275 10.8761 21.7392 7.56222 18.4122C4.24829 15.0852 2.06855 10.7904 1.3354 6.14328C1.27919 5.78698 1.2317 5.43001 1.19289 5.07268C1.10253 4.24071 1.56391 3.45809 2.30667 3.07814L5.55725 1.41536C6.81529 0.771838 8.33752 1.5225 8.77994 2.8686C9.04827 3.68504 9.36516 4.48843 9.73023 5.2744C9.91316 5.66825 10.1072 6.0556 10.312 6.43607C10.7968 7.33683 10.4698 8.49216 9.54135 8.91583C8.19298 9.53113 7.87184 11.3091 8.91916 12.3605L13.5902 17.0499C14.6375 18.1014 16.4085 17.779 17.0214 16.4253C17.4666 15.4418 18.6736 15.0858 19.632 15.577C19.8643 15.6961 20.0991 15.8112 20.3363 15.9222C21.2349 16.3429 22.1563 16.6998 23.094 16.9925C24.4592 17.4186 25.2342 18.965 24.5851 20.2438L22.8368 23.6885Z" stroke="#2D383F" stroke-linecap="round" stroke-linejoin="round"/>
    </g>
    <defs>
      <clipPath id="clip0_248_2060">
        <rect width="26" height="26" fill="white"/>
      </clipPath>
    </defs>
  </symbol>
  <symbol viewBox="0 0 26 26" id="mail">
    <path d="M24.818 6.56592V19.4346C24.818 20.4499 24.0621 21.273 23.1297 21.273H2.86995C1.93752 21.273 1.18164 20.4499 1.18164 19.4346V6.56592M24.818 6.56592C24.818 5.55061 24.0621 4.72754 23.1297 4.72754H2.86995C1.93752 4.72754 1.18164 5.55061 1.18164 6.56592M24.818 6.56592L15.1973 15.5452C13.9328 16.7254 12.0669 16.7254 10.8024 15.5452L1.18164 6.56592" stroke="#2D383F" stroke-linecap="round" stroke-linejoin="round"/>
  </symbol>
  <symbol viewBox="0 0 26 26" id="point">
    <path d="M21.8635 9.62847C21.8635 4.96342 17.8951 1.18164 12.9999 1.18164C8.10462 1.18164 4.13623 4.96342 4.13623 9.62847V10.1372C4.13623 12.0038 4.74823 13.8237 5.88667 15.3426L12.9824 24.8094C12.9909 24.8209 13.0088 24.8209 13.0174 24.8094L20.1131 15.3426C21.2515 13.8237 21.8635 12.0038 21.8635 10.1372V9.62847Z" stroke="#2D383F" stroke-linecap="round" stroke-linejoin="round"/>
    <path d="M11.2674 6.25049C12.3622 5.74805 13.6375 5.74805 14.7323 6.25049C15.8271 6.75293 16.6223 7.70313 16.8927 8.8321C17.1631 9.96107 16.8793 11.1459 16.1217 12.0513C15.364 12.9567 14.215 13.484 12.9999 13.484C11.7847 13.484 10.6357 12.9567 9.87807 12.0513C9.12044 11.1459 8.83665 9.96107 9.10705 8.8321C9.37744 7.70313 10.1726 6.75293 11.2674 6.25049Z" stroke="#2D383F" stroke-linecap="round" stroke-linejoin="round"/>
  </symbol>
</svg>
