<svg xmlns="http://www.w3.org/2000/svg" xmlns:xlink="http://www.w3.org/1999/xlink"><defs>
      <clipPath id="clip0_131_2742">
        <rect width="22" height="22" fill="white" transform="translate(16 16)"/>
      </clipPath>
    
      <clipPath id="clip0_131_4063">
        <rect width="12" height="12" fill="white"/>
      </clipPath>
    
        <clipPath id="clip0_131_4065">
          <rect width="12" height="12" fill="white"/>
        </clipPath>
      
      <clipPath id="clip0_248_2546">
        <rect width="15" height="14" fill="white"/>
      </clipPath>
    
      <clipPath id="clip0_248_2542">
        <rect width="15" height="14" fill="white"/>
      </clipPath>
    
      <clipPath id="clip0_248_2161">
        <rect width="25" height="25" fill="white"/>
      </clipPath>
    
      <clipPath id="clip0_248_2173">
        <rect width="23" height="23" fill="white"/>
      </clipPath>
    
      <clipPath id="clip0_248_2190">
        <rect width="25" height="25" fill="white"/>
      </clipPath>
    
      <clipPath id="clip0_131_2520">
        <rect width="142" height="42" fill="white"/>
      </clipPath>
    
      <clipPath id="clip0_303_441">
        <rect width="205" height="62" fill="white"/>
      </clipPath>
    </defs><symbol id="features-icons">
  <symbol viewBox="0 0 54 54" id="level">
    <path d="M24.75 26.912L27 29.1562L30.9375 25.2288M27 17C24.6787 18.187 22.0926 18.8181 19.449 18.8181C19.0921 18.8181 18.7363 18.8066 18.382 18.7838C17.9246 20.8703 17.874 23.0414 18.2515 25.1765C18.9272 28.9986 20.9314 32.4612 23.9122 34.9559C24.868 35.7558 25.9045 36.4398 27 37C28.0955 36.4398 29.132 35.7558 30.0878 34.9559C33.0686 32.4612 35.0728 28.9986 35.7485 25.1765C36.126 23.0414 36.0754 20.8703 35.618 18.7838C35.2637 18.8066 34.9078 18.8181 34.5509 18.8181C31.9074 18.8181 29.3212 18.187 27 17Z" stroke="#0266C1"/>
    <rect x="0.5" y="0.5" width="53" height="53" stroke="#0266C1"/>
  </symbol>
  <symbol viewBox="0 0 54 54" id="crown">
    <path d="M33.6867 36H20.3133M37 23.1103L34.0746 32.8049H19.9254L17 23.1103L22.7717 26.6142L27 18L31.2283 26.6142L37 23.1103Z" stroke="#0266C1"/>
    <rect x="0.5" y="0.5" width="53" height="53" stroke="#0266C1"/>
  </symbol>
  <symbol viewBox="0 0 54 54" id="boots">
    <path d="M36.7153 30.2434C37.3367 28.1487 36.8254 25.7711 36.2821 24.1236C36.2785 24.0599 36.2602 23.9981 36.2288 23.9439C36.0442 23.4088 35.8737 22.9692 35.7281 22.6519C35.9961 22.5371 36.1729 22.2591 36.1755 21.9486V18.7645C36.1755 18.3423 35.8576 18 35.4654 18H26.7408C26.5447 17.9996 26.3854 18.1704 26.3851 18.3816C26.3851 18.3895 26.3853 18.3973 26.3857 18.4052C26.5064 20.6987 26.3502 22.2544 25.8992 23.3515C25.8903 23.3623 25.882 23.3739 25.8744 23.3859C25.873 23.4049 25.873 23.4241 25.8744 23.4432C25.7022 23.8425 25.4694 24.2081 25.1855 24.525L25.1535 24.5479C25.1535 24.5479 25.1535 24.5479 25.1535 24.5746C24.7372 25.002 24.2571 25.3509 23.7332 25.6067C22.8203 26.0427 21.8835 26.418 20.928 26.7305L20.7469 26.7955C17.4268 27.9805 16.9936 30.1287 17.0007 31.2066C16.9998 31.2219 16.9998 31.2372 17.0007 31.2525V33.9817C17.0012 34.1146 17.0657 34.2376 17.1711 34.3066C17.9848 34.8396 18.8631 35.2486 19.781 35.5222C19.9698 35.5793 20.1659 35.4609 20.219 35.2577C20.229 35.2194 20.2334 35.1797 20.232 35.1399V35.052H20.754V35.4343C20.7517 35.6236 20.8786 35.7862 21.0522 35.8165C21.3612 35.87 21.6701 35.9121 21.9719 35.9388C22.0708 35.9478 22.1687 35.9117 22.2418 35.8395C22.3149 35.7665 22.3561 35.6639 22.3554 35.5566V35.075H22.8774V35.6178C22.8774 35.8288 23.0364 36 23.2325 36C23.5308 36 23.8291 36 24.1486 35.9541C24.3336 35.9382 24.4759 35.7716 24.4753 35.5719V35.075H24.9973V35.4113C24.9948 35.6224 25.1517 35.7958 25.3478 35.7985C25.3683 35.7988 25.3889 35.7972 25.4092 35.7936C26.061 35.6861 26.7035 35.5212 27.3302 35.3005L27.3871 35.2737C29.8727 33.7447 31.4493 35.0023 31.5132 35.0559C31.5752 35.1076 31.6513 35.1358 31.7298 35.1361H32.1701C32.3662 35.1361 32.5252 34.965 32.5252 34.7539V34.1079H33.033V34.7462C33.033 34.9573 33.192 35.1285 33.3881 35.1285H34.5315C34.7276 35.1285 34.8866 34.9573 34.8866 34.7462V34.1079H35.4121V34.7462C35.4121 34.9573 35.5711 35.1285 35.7672 35.1285H36.6443C36.8404 35.1285 36.9993 34.9573 36.9993 34.7462V30.6256C37.0028 30.4411 36.8833 30.2803 36.7153 30.2434ZM28.289 18.7721H35.4476V21.9371H28.289V18.7721ZM23.8255 26.3941L23.8291 26.4171C24.1201 26.6715 24.3888 26.9543 24.6316 27.2618C24.5672 27.3771 24.5339 27.5095 24.5357 27.6441C24.5332 28.0473 24.8349 28.3763 25.2095 28.3789C25.584 28.3815 25.8896 28.0568 25.8921 27.6536C25.8944 27.2737 25.6257 26.9555 25.2743 26.9216C25.0497 26.592 24.7938 26.2884 24.5108 26.0157C24.8281 25.8213 25.1267 25.5934 25.4021 25.3353C25.7465 25.6831 26.0669 26.0574 26.3608 26.4553C26.2373 26.836 26.4238 27.2523 26.7774 27.3854C27.131 27.5183 27.5178 27.3176 27.6414 26.9369C27.7649 26.5563 27.5784 26.1399 27.2248 26.0069C27.1515 25.9793 27.0742 25.9655 26.9965 25.966H26.9112C26.5998 25.5439 26.2604 25.1466 25.8957 24.7772C26.0649 24.5529 26.2147 24.3124 26.3431 24.0586C26.8928 24.3667 27.4241 24.7113 27.9339 25.0907C27.9304 25.4981 28.2344 25.8314 28.6129 25.8352C28.9914 25.839 29.301 25.5117 29.3045 25.1043C29.308 24.6969 29.004 24.3635 28.6255 24.3598C28.5174 24.3587 28.4106 24.3851 28.3138 24.437C27.7773 24.046 27.2187 23.6911 26.6414 23.3744C27.0284 22.2659 27.1953 20.7942 27.1172 18.7874H27.5824V21.9524C27.5824 22.3747 27.9003 22.7169 28.2925 22.7169H34.9469C35.0392 22.9195 35.1955 23.2712 35.3659 23.7299H35.2203C33.0632 23.7467 31.3271 25.6427 31.3427 27.9648C31.3515 29.2844 31.9353 30.5229 32.9194 31.3098C30.0467 32.124 25.7252 33.0911 22.0891 32.8388C22.7602 29.9529 21.9577 28.1754 21.4357 27.3956C22.2486 27.1086 23.0463 26.7743 23.8255 26.3941ZM20.722 27.6135C21.1055 28.099 22.1069 29.7312 21.3718 32.7318C20.0923 32.6235 18.8497 32.2193 17.7286 31.5468C17.7159 31.4595 17.7076 31.3714 17.7037 31.2831V31.2563C17.6753 30.4421 17.9594 28.68 20.722 27.6135ZM36.1223 34.364V33.7256C36.1223 33.5145 35.9633 33.3434 35.7672 33.3434H34.535C34.3389 33.3434 34.1799 33.5145 34.1799 33.7256V34.364H33.7432V33.7256C33.7432 33.5145 33.5842 33.3434 33.3881 33.3434H32.163C31.9669 33.3434 31.8079 33.5145 31.8079 33.7256V34.3487C31.325 34.0238 29.5602 33.0796 27.0568 34.5857C26.6114 34.7439 26.1572 34.8716 25.6968 34.9679V34.7042C25.6968 34.4931 25.5378 34.3219 25.3417 34.3219H24.1167C23.9206 34.3219 23.7616 34.4931 23.7616 34.7042V35.2279H23.5805V34.6927C23.5805 34.4816 23.4215 34.3105 23.2254 34.3105H21.9932C21.7971 34.3105 21.6381 34.4816 21.6381 34.6927V35.1476L21.457 35.1208V34.6927C21.457 34.4816 21.2981 34.3105 21.102 34.3105H19.8698C19.6892 34.3091 19.5364 34.4538 19.5147 34.6468C18.8845 34.4235 18.2776 34.1301 17.7037 33.7715V32.4031C19.2519 33.286 21.2546 33.6186 23.3852 33.6186C29.0453 33.6186 35.5222 31.2869 36.2856 31.0079L36.2892 34.364H36.1223ZM35.9483 30.3313C35.6465 30.4383 34.9043 30.7135 33.8781 31.0079C32.2894 30.1801 31.6248 28.1228 32.3937 26.4125C32.9197 25.2427 34.0132 24.4917 35.2203 24.4714C35.3603 24.4693 35.5003 24.477 35.6394 24.4944L35.6429 24.5058C36.1649 26.1266 36.6336 28.4392 35.9483 30.3313Z" fill="#0266C1"/>
    <path d="M29.6564 19.2347C29.0857 19.2347 28.6231 19.7327 28.6231 20.347C28.625 20.9605 29.0865 21.4573 29.6564 21.4594C30.227 21.4594 30.6897 20.9613 30.6897 20.347C30.6897 19.7327 30.2271 19.2347 29.6564 19.2347ZM29.6564 20.6949C29.4779 20.6949 29.3332 20.5392 29.3332 20.347C29.3332 20.1549 29.4779 19.9992 29.6564 19.9992C29.8348 19.9992 29.9795 20.1549 29.9795 20.347C29.9795 20.5392 29.8348 20.6949 29.6564 20.6949Z" fill="#0266C1"/>
    <rect x="0.5" y="0.5" width="53" height="53" stroke="#0266C1"/>
  </symbol>
  <symbol viewBox="0 0 54 54" id="path">
    <g clip-path="url(#clip0_131_2742)">
      <path d="M34.1429 24.7674H28.7857C27.1091 24.7674 25.75 26.1366 25.75 27.8256C25.75 29.5145 27.1091 30.8837 28.7857 30.8837H31.1071C32.7837 30.8837 34.1429 32.2529 34.1429 33.9419C34.1429 35.6308 32.7837 37 31.1071 37H19.8571M22.7143 31.9302C22.7143 30.3406 21.4351 29.0519 19.8571 29.0519C18.2792 29.0519 17 30.3406 17 31.9302V32.0384C17 32.6695 17.1985 33.2845 17.567 33.7949L19.8515 36.9593C19.8543 36.9632 19.86 36.9632 19.8628 36.9593L22.1473 33.7949C22.5158 33.2845 22.7143 32.6695 22.7143 32.0384V31.9302ZM20.4095 30.7454L20.4266 30.7535C20.7724 30.9183 21.0245 31.2332 21.1111 31.6086C21.1987 31.9881 21.1046 32.3904 20.8608 32.6929C20.6196 32.9921 20.2548 33.1691 19.8723 33.1691H19.842C19.4594 33.1691 19.0946 32.9921 18.8535 32.6929C18.6097 32.3904 18.5156 31.9881 18.6032 31.6086C18.6898 31.2332 18.9419 30.9183 19.2877 30.7535L19.3048 30.7454C19.6545 30.5788 20.0598 30.5788 20.4095 30.7454ZM37 19.8985C37 18.3089 35.7208 17 34.1429 17C32.5649 17 31.2857 18.3089 31.2857 19.8985C31.2857 20.5234 31.4857 21.1384 31.8561 21.6397L34.1372 24.7277C34.14 24.7315 34.1457 24.7315 34.1485 24.7277L36.4297 21.6397C36.8 21.1384 37 20.5234 37 19.8985ZM34.6875 18.6514L34.7262 18.6694C35.0631 18.8263 35.3099 19.1302 35.3957 19.4939C35.4838 19.8669 35.3925 20.26 35.1492 20.5549L35.137 20.5697C34.8999 20.8573 34.548 21.0236 34.1769 21.0236H34.1088C33.7377 21.0236 33.3858 20.8573 33.1487 20.5697L33.1365 20.5549C32.8932 20.26 32.8019 19.8669 32.89 19.4939C32.9758 19.1302 33.2226 18.8263 33.5595 18.6694L33.5983 18.6514C33.9438 18.4905 34.342 18.4905 34.6875 18.6514Z" stroke="#0266C1" stroke-linecap="round"/>
    </g>
    <rect x="0.5" y="0.5" width="53" height="53" stroke="#0266C1"/>
    
  </symbol>
  <symbol viewBox="0 0 54 54" id="leaf">
    <path d="M26.6903 32.2442C26.0125 29.3813 24.0195 26.9718 21.2754 25.6977C19.924 25.0703 18.4628 24.7518 17 24.7424C17.0856 26.771 17.8343 28.7457 19.1753 30.367C21.0604 32.646 23.9121 33.9803 26.933 33.9998C26.9083 33.4135 26.828 32.8259 26.6903 32.2442ZM26.6903 32.2442C26.1339 29.894 24.6911 27.8494 22.6741 26.4875C22.7081 26.2845 22.749 26.0818 22.7968 25.8799C23.3703 23.4577 24.8852 21.36 27 20C29.1147 21.36 30.6297 23.4577 31.2031 25.8799C31.2509 26.0818 31.2918 26.2845 31.3258 26.4875C29.3088 27.8493 27.8661 29.894 27.3097 32.2442M26.6903 32.2442C26.8279 32.8257 26.9082 33.4131 26.933 33.9992C26.9748 33.9997 27.0166 34 27.0585 34C27.9054 34 28.7394 33.8966 29.5431 33.698C29.5477 33.692 29.5522 33.6859 29.5567 33.6799C28.752 33.8849 27.9162 33.9943 27.067 33.9998M27.3097 32.2442C27.9875 29.3813 29.9805 26.9718 32.7246 25.6977C34.076 25.0703 35.5372 24.7518 37 24.7424C36.9144 26.771 36.1657 28.7457 34.8247 30.367C32.9396 32.646 30.0879 33.9803 27.067 33.9998M27.3097 32.2442C27.172 32.8259 27.0917 33.4135 27.067 33.9998" stroke="#0266C1" stroke-linecap="round" stroke-linejoin="round"/>
    <rect x="0.5" y="0.5" width="53" height="53" stroke="#0266C1"/>
  </symbol>
</symbol><symbol id="icons">
  <symbol viewBox="0 0 12 12" id="moon">
    <g clip-path="url(#clip0_131_4063)">
      <path d="M11.1966 6.75385C11.0851 6.72587 10.9736 6.75385 10.876 6.8238C10.5135 7.13159 10.0953 7.38341 9.6352 7.55129C9.20301 7.71918 8.72901 7.80312 8.22712 7.80312C7.09786 7.80312 6.0662 7.34144 5.32731 6.59996C4.58841 5.85848 4.12835 4.8232 4.12835 3.69C4.12835 3.21433 4.212 2.75266 4.35141 2.33295C4.50477 1.88526 4.72783 1.47955 5.0206 1.12979C5.14607 0.9759 5.11819 0.752056 4.96483 0.626144C4.86724 0.556193 4.75571 0.528213 4.64418 0.556193C3.45916 0.877968 2.4275 1.59147 1.6886 2.5428C0.977593 3.48015 0.54541 4.64133 0.54541 5.91444C0.54541 7.43937 1.15883 8.8244 2.16261 9.8317C3.16639 10.839 4.54659 11.4546 6.0662 11.4546C7.34881 11.4546 8.53383 11.0069 9.48184 10.2654C10.4438 9.50992 11.1409 8.43268 11.4336 7.20154C11.5033 6.99169 11.3918 6.79582 11.1966 6.75385ZM9.0636 9.67781C8.255 10.3214 7.22334 10.7131 6.09408 10.7131C4.76965 10.7131 3.57069 10.1675 2.70633 9.30007C1.84196 8.43268 1.29825 7.22952 1.29825 5.90045C1.29825 4.79523 1.66072 3.78793 2.28808 2.9765C2.72027 2.41689 3.26398 1.95521 3.89134 1.63344C3.82164 1.78733 3.75193 1.94122 3.69617 2.10911C3.51493 2.61275 3.43128 3.14438 3.43128 3.70399C3.43128 5.03306 3.97499 6.25021 4.83936 7.1176C5.70373 7.98499 6.91663 8.53061 8.24106 8.53061C8.8266 8.53061 9.38425 8.43268 9.90008 8.23681C10.0813 8.16686 10.2626 8.09691 10.4299 8.01297C10.0953 8.65652 9.6352 9.23012 9.0636 9.67781Z" fill="white"/>
    </g>
    
  </symbol>
  <symbol viewBox="0 0 12 12" id="stats">
      <g clip-path="url(#clip0_131_4065)">
        <path d="M10.9091 11.4546H8.94549V0.545471H10.9091V11.4546Z" stroke="white" stroke-miterlimit="16" stroke-linecap="round"/>
        <path d="M6.98185 11.4546V3.52068H5.01821L5.01822 11.4546H6.98185Z" stroke="white" stroke-miterlimit="16" stroke-linecap="round"/>
        <path d="M3.05458 11.4546V6.49588H1.09094V11.4546H3.05458Z" stroke="white" stroke-miterlimit="16" stroke-linecap="round"/>
      </g>
      
  </symbol>
  <symbol viewBox="0 0 56 56" id="play">
    <circle cx="28" cy="28" r="27.5" fill="white" fill-opacity="0.2" stroke="white"/>
    <path d="M37 28L25 17V39L37 28Z" fill="white"/>
  </symbol>
  <symbol viewBox="0 0 24 24" id="play-audio">
    <g id="SVGRepo_bgCarrier" stroke-width="0"/>
    <g id="SVGRepo_tracerCarrier" stroke-linecap="round" stroke-linejoin="round"/>
    <g id="SVGRepo_iconCarrier">
      <path opacity="1" fill-rule="evenodd" clip-rule="evenodd" d="M12 22C17.5228 22 22 17.5228 22 12C22 6.47715 17.5228 2 12 2C6.47715 2 2 6.47715 2 12C2 17.5228 6.47715 22 12 22Z" fill="#1C3374"/>
      <path d="M15.4137 13.059L10.6935 15.8458C9.93371 16.2944 9 15.7105 9 14.7868V9.21316C9 8.28947 9.93371 7.70561 10.6935 8.15419L15.4137 10.941C16.1954 11.4026 16.1954 12.5974 15.4137 13.059Z" fill="#fff"/>
    </g>
  </symbol>
  <symbol viewBox="0 0 15 13" id="like">
    <path d="M14.3232 2.70821C14.1007 2.19296 13.7799 1.72605 13.3786 1.33361C12.9771 0.939992 12.5036 0.627194 11.9841 0.412219C11.4453 0.188418 10.8675 0.0738642 10.2841 0.075207C9.46562 0.075207 8.66709 0.299328 7.97314 0.722668C7.80713 0.823937 7.64941 0.935168 7.5 1.05636C7.35059 0.935168 7.19287 0.823937 7.02686 0.722668C6.33291 0.299328 5.53437 0.075207 4.71592 0.075207C4.12656 0.075207 3.55547 0.188098 3.01592 0.412219C2.49463 0.628039 2.0248 0.938488 1.62139 1.33361C1.21962 1.72561 0.898684 2.19263 0.676758 2.70821C0.445996 3.24445 0.328125 3.81388 0.328125 4.39991C0.328125 4.95275 0.441016 5.52882 0.665137 6.11486C0.852734 6.6046 1.12168 7.11261 1.46533 7.6256C2.00986 8.43741 2.75859 9.28409 3.68828 10.1424C5.22891 11.5651 6.75459 12.548 6.81934 12.5878L7.21279 12.8401C7.38711 12.9514 7.61123 12.9514 7.78555 12.8401L8.179 12.5878C8.24375 12.5463 9.76777 11.5651 11.3101 10.1424C12.2397 9.28409 12.9885 8.43741 13.533 7.6256C13.8767 7.11261 14.1473 6.6046 14.3332 6.11486C14.5573 5.52882 14.6702 4.95275 14.6702 4.39991C14.6719 3.81388 14.554 3.24445 14.3232 2.70821ZM7.5 11.527C7.5 11.527 1.58984 7.74015 1.58984 4.39991C1.58984 2.70821 2.98936 1.33693 4.71592 1.33693C5.92949 1.33693 6.98203 2.01427 7.5 3.00372C8.01797 2.01427 9.07051 1.33693 10.2841 1.33693C12.0106 1.33693 13.4102 2.70821 13.4102 4.39991C13.4102 7.74015 7.5 11.527 7.5 11.527Z" fill="#1C3374"/>
  </symbol>
  <symbol viewBox="0 0 9 12" id="point-place">
    <path d="M4.49981 0C2.01874 0 0 1.98191 0 4.41796C0 5.05338 0.132472 5.66006 0.39354 6.2213C1.51862 8.63833 3.67571 11.1902 4.31017 11.9146C4.35771 11.9688 4.42701 12 4.49994 12C4.57287 12 4.64217 11.9688 4.6897 11.9146C5.32392 11.1903 7.48101 8.63857 8.60646 6.2213C8.86765 5.66006 9 5.05338 9 4.41796C8.99975 1.98191 6.98101 0 4.49981 0ZM4.49981 6.71267C3.21099 6.71267 2.16234 5.68315 2.16234 4.41784C2.16234 3.15241 3.21099 2.12289 4.49981 2.12289C5.78864 2.12289 6.83728 3.15241 6.83728 4.41784C6.83741 5.68315 5.78876 6.71267 4.49981 6.71267Z" fill="white"/>
  </symbol>
  <symbol viewBox="0 0 20 20" id="sun">
    <path d="M13.545 6.45505C12.6455 5.55558 11.3757 4.97357 10 4.97357C8.62433 4.97357 7.35449 5.52912 6.45502 6.45505C5.55555 7.35451 4.97354 8.62435 4.97354 10C4.97354 11.3757 5.55555 12.6455 6.45502 13.545C7.35449 14.4444 8.62433 15.0265 10 15.0265C11.3757 15.0265 12.6455 14.4709 13.545 13.545C14.4444 12.6455 15.0265 11.3757 15.0265 10C15.0265 8.62435 14.4709 7.35451 13.545 6.45505ZM12.5926 12.5926C11.9312 13.254 11.0053 13.6508 10 13.6508C8.9947 13.6508 8.06878 13.254 7.4074 12.5926C6.74603 11.9312 6.3492 11.0053 6.3492 10C6.3492 8.99472 6.74603 8.0688 7.4074 7.40742C8.06878 6.74605 8.9947 6.34923 10 6.34923C11.0053 6.34923 11.9312 6.74605 12.5926 7.40742C13.254 8.0688 13.6508 8.99472 13.6508 10C13.6508 11.0053 13.254 11.9312 12.5926 12.5926Z" fill="white"/>
    <path d="M19.3122 9.3122H17.2751C16.9048 9.3122 16.5873 9.62966 16.5873 10C16.5873 10.3704 16.9048 10.6879 17.2751 10.6879H19.3122C19.6825 10.6879 20 10.3704 20 10C20 9.62966 19.6825 9.3122 19.3122 9.3122Z" fill="white"/>
    <path d="M9.99999 16.5873C9.62962 16.5873 9.31216 16.9048 9.31216 17.2751V19.3122C9.31216 19.6825 9.62962 20 9.99999 20C10.3704 20 10.6878 19.6825 10.6878 19.3122V17.2751C10.6878 16.9048 10.3704 16.5873 9.99999 16.5873Z" fill="white"/>
    <path d="M17.0635 16.1111L15.6085 14.656C15.3704 14.3915 14.9207 14.3915 14.6561 14.656C14.3916 14.9206 14.3916 15.3439 14.6561 15.6084L16.1111 17.0634C16.3757 17.328 16.799 17.328 17.0635 17.0634C17.3281 16.7989 17.3281 16.3756 17.0635 16.1111Z" fill="white"/>
    <path d="M9.99999 0C9.62962 0 9.31216 0.317459 9.31216 0.687829V2.72486C9.31216 3.09523 9.62962 3.41269 9.99999 3.41269C10.3704 3.41269 10.6878 3.09523 10.6878 2.72486V0.687829C10.6878 0.317459 10.3704 0 9.99999 0Z" fill="white"/>
    <path d="M17.0899 2.93653C16.8254 2.67198 16.4021 2.67198 16.1376 2.93653L14.6825 4.39155C14.418 4.6561 14.418 5.07938 14.6825 5.34393C14.9206 5.60848 15.3704 5.60848 15.6349 5.34393L17.0899 3.88891C17.3545 3.62436 17.3545 3.20108 17.0899 2.93653Z" fill="white"/>
    <path d="M2.72487 9.3122H0.687831C0.31746 9.3122 0 9.62966 0 10C0 10.3704 0.291005 10.6879 0.687831 10.6879H2.72487C3.09524 10.6879 3.4127 10.3704 3.4127 10C3.4127 9.62966 3.09524 9.3122 2.72487 9.3122Z" fill="white"/>
    <path d="M5.31746 14.656C5.07937 14.3915 4.62963 14.3915 4.36508 14.656L2.91005 16.1111C2.6455 16.3756 2.6455 16.7989 2.91005 17.0634C3.1746 17.328 3.59788 17.328 3.86243 17.0634L5.31746 15.6084C5.58201 15.3439 5.58201 14.9206 5.31746 14.656Z" fill="white"/>
    <path d="M5.31746 4.39155L3.86243 2.93653C3.59788 2.67198 3.1746 2.67198 2.91005 2.93653C2.6455 3.20108 2.6455 3.62436 2.91005 3.88891L4.36508 5.34393C4.62963 5.60848 5.05291 5.60848 5.31746 5.34393C5.58201 5.07938 5.58201 4.6561 5.31746 4.39155Z" fill="white"/>
  </symbol>
  <symbol viewBox="0 0 25 25" id="mix">
    <path d="M23.2129 17.4121C23.3596 17.5602 23.4419 17.7603 23.4419 17.9688C23.4419 18.1772 23.3596 18.3773 23.2129 18.5254L20.8691 20.8691C20.7198 21.0135 20.5202 21.0942 20.3125 21.0942C20.1048 21.0942 19.9052 21.0135 19.7559 20.8691C19.6092 20.721 19.5269 20.521 19.5269 20.3125C19.5269 20.104 19.6092 19.904 19.7559 19.7559L20.7715 18.75H19.6191C18.4996 18.748 17.3967 18.4795 16.4016 17.9667C15.4064 17.4538 14.5477 16.7114 13.8965 15.8008L9.82422 10.1074C9.31888 9.3997 8.65233 8.82244 7.87968 8.42338C7.10703 8.02432 6.25048 7.81492 5.38086 7.8125H3.125C2.9178 7.8125 2.71909 7.73019 2.57257 7.58368C2.42606 7.43717 2.34375 7.23845 2.34375 7.03125C2.34375 6.82405 2.42606 6.62534 2.57257 6.47882C2.71909 6.33231 2.9178 6.25 3.125 6.25H5.38086C6.50037 6.25197 7.60331 6.52049 8.59844 7.03333C9.59357 7.54618 10.4523 8.28862 11.1035 9.19922L15.1758 14.8926C15.6811 15.6003 16.3477 16.1776 17.1203 16.5766C17.893 16.9757 18.7495 17.1851 19.6191 17.1875H20.7715L19.7559 16.1816C19.6313 16.0298 19.5676 15.8371 19.5772 15.641C19.5869 15.4449 19.6691 15.2593 19.808 15.1205C19.9468 14.9816 20.1324 14.8994 20.3285 14.8897C20.5246 14.8801 20.7173 14.9438 20.8691 15.0684L23.2129 17.4121ZM13.9648 10.4492C14.0487 10.5093 14.1436 10.5521 14.2441 10.5753C14.3446 10.5985 14.4487 10.6015 14.5504 10.5843C14.6521 10.567 14.7493 10.5298 14.8365 10.4748C14.9238 10.4198 14.9992 10.348 15.0586 10.2637L15.1758 10.1074C15.6811 9.3997 16.3477 8.82244 17.1203 8.42338C17.893 8.02432 18.7495 7.81492 19.6191 7.8125H20.7715L19.7559 8.81836C19.6092 8.96648 19.5269 9.16653 19.5269 9.375C19.5269 9.58348 19.6092 9.78352 19.7559 9.93164C19.9052 10.076 20.1048 10.1567 20.3125 10.1567C20.5202 10.1567 20.7198 10.076 20.8691 9.93164L23.2129 7.58789C23.3596 7.43977 23.4419 7.23973 23.4419 7.03125C23.4419 6.82278 23.3596 6.62273 23.2129 6.47461L20.8691 4.13086C20.7173 4.00628 20.5246 3.94261 20.3285 3.95225C20.1324 3.96188 19.9468 4.04412 19.808 4.18298C19.6691 4.32183 19.5869 4.50737 19.5772 4.70351C19.5676 4.89964 19.6313 5.09235 19.7559 5.24414L20.7715 6.25H19.6191C18.4996 6.25197 17.3967 6.52049 16.4016 7.03333C15.4064 7.54618 14.5477 8.28862 13.8965 9.19922L13.7891 9.35547C13.7285 9.43873 13.685 9.53313 13.6611 9.63326C13.6372 9.73338 13.6332 9.83725 13.6496 9.93889C13.6659 10.0405 13.7022 10.1379 13.7563 10.2255C13.8104 10.3131 13.8813 10.3891 13.9648 10.4492ZM11.0352 14.5508C10.9513 14.4907 10.8564 14.4479 10.7559 14.4247C10.6554 14.4015 10.5513 14.3985 10.4496 14.4157C10.3479 14.433 10.2507 14.4702 10.1635 14.5252C10.0762 14.5802 10.0008 14.652 9.94141 14.7363L9.82422 14.8926C9.31888 15.6003 8.65233 16.1776 7.87968 16.5766C7.10703 16.9757 6.25048 17.1851 5.38086 17.1875H3.125C2.9178 17.1875 2.71909 17.2698 2.57257 17.4163C2.42606 17.5628 2.34375 17.7616 2.34375 17.9688C2.34375 18.176 2.42606 18.3747 2.57257 18.5212C2.71909 18.6677 2.9178 18.75 3.125 18.75H5.38086C6.50037 18.748 7.60331 18.4795 8.59844 17.9667C9.59357 17.4538 10.4523 16.7114 11.1035 15.8008L11.2109 15.6445C11.2715 15.5613 11.315 15.4669 11.3389 15.3667C11.3628 15.2666 11.3668 15.1628 11.3504 15.0611C11.3341 14.9595 11.2978 14.8621 11.2437 14.7745C11.1896 14.6869 11.1187 14.6109 11.0352 14.5508Z" fill="#1C3374"/>
  </symbol>
  <symbol viewBox="0 0 15 14" id="star">
    <g clip-path="url(#clip0_248_2546)">
      <path d="M7.74525 10.6055L7.5 10.4674L7.25475 10.6055L3.63071 12.6453L4.57642 8.85073L4.6535 8.54147L4.40569 8.34105L1.28779 5.81937L5.43318 5.48739L5.72674 5.46388L5.84852 5.19573L7.5 1.55927L9.15151 5.19574L9.27329 5.46388L9.56685 5.48739L13.7122 5.81937L10.5943 8.34105L10.3465 8.54147L10.4236 8.85073L11.3693 12.6453L7.74525 10.6055Z" stroke="white"/>
    </g>
    
  </symbol>
  <symbol viewBox="0 0 15 14" id="star-filled">
    <g clip-path="url(#clip0_248_2542)">
      <path d="M7.5 11.0412L12.135 13.6501L10.9087 8.72981L15 5.4209L9.60676 4.98898L7.5 0.350098L5.39326 4.98898L0 5.4209L4.09126 8.72981L2.865 13.6501L7.5 11.0412Z" fill="white"/>
    </g>
    
  </symbol>
  <symbol viewBox="0 0 25 25" id="repeat">
    <path d="M20.1449 8.18493C20.9716 9.05095 21.5321 10.1362 21.7599 11.3116C21.9876 12.487 21.873 13.7031 21.4296 14.8152C20.9862 15.9273 20.2327 16.8887 19.2587 17.5849C18.2847 18.2812 17.1313 18.6831 15.9355 18.7427L15.6246 18.7506L10.4793 18.749L12.273 20.5443C12.4024 20.6736 12.4824 20.8442 12.4989 21.0263C12.5155 21.2085 12.4676 21.3907 12.3636 21.5412L12.273 21.649C12.1437 21.7784 11.9732 21.8584 11.791 21.8749C11.6088 21.8915 11.4266 21.8436 11.2761 21.7396L11.1683 21.649L8.04019 18.5209C7.91101 18.3914 7.83134 18.2207 7.81507 18.0386C7.79879 17.8564 7.84694 17.6743 7.95113 17.524L8.04019 17.4162L11.1683 14.2881C11.3061 14.1496 11.4908 14.0679 11.6859 14.0588C11.881 14.0498 12.0724 14.1142 12.2223 14.2393C12.3723 14.3644 12.47 14.5411 12.4962 14.7346C12.5223 14.9282 12.475 15.1245 12.3636 15.2849L12.273 15.3943L10.4793 17.1865H15.6246C16.82 17.1866 17.9702 16.73 18.8401 15.9101C19.71 15.0901 20.2337 13.9689 20.3043 12.7756L20.3121 12.5006C20.3139 11.2665 19.8275 10.0819 18.9589 9.20525C18.8164 9.06095 18.7355 8.86686 18.7334 8.66401C18.7314 8.46117 18.8083 8.26548 18.9479 8.11833C19.0876 7.97118 19.279 7.88412 19.4816 7.87555C19.6843 7.86699 19.8824 7.93759 20.0339 8.07243L20.1464 8.18493H20.1449ZM13.7246 3.26149L13.8339 3.35056L16.9605 6.47868L17.0511 6.58806C17.1412 6.71852 17.1894 6.87329 17.1894 7.03181C17.1894 7.19033 17.1412 7.34509 17.0511 7.47556L16.9605 7.58493L13.8339 10.7115L13.7246 10.8021C13.5941 10.8922 13.4393 10.9404 13.2808 10.9404C13.1223 10.9404 12.9675 10.8922 12.8371 10.8021L12.7277 10.7115L12.6386 10.6021C12.5486 10.4717 12.5004 10.3169 12.5004 10.1584C12.5004 9.99985 12.5486 9.84509 12.6386 9.71462L12.7277 9.60525L14.5214 7.81306H9.37456C8.17892 7.81299 7.02845 8.26982 6.15853 9.09006C5.28861 9.91031 4.76502 11.032 4.69488 12.2256L4.68706 12.5006C4.68706 13.7818 5.20113 14.9412 6.03238 15.7881C6.16401 15.9384 6.23305 16.1334 6.22531 16.333C6.21758 16.5327 6.13365 16.7218 5.99078 16.8614C5.84792 17.0011 5.65697 17.0807 5.4572 17.0839C5.25744 17.0871 5.06403 17.0137 4.91675 16.8787C4.07305 16.0192 3.49566 14.9342 3.25403 13.7543C3.0124 12.5744 3.11682 11.3499 3.55474 10.2279C3.99266 9.10596 4.74542 8.13444 5.72246 7.43021C6.6995 6.72598 7.85921 6.31905 9.06206 6.25837L9.37456 6.25056L14.5214 6.249L12.7277 4.45681L12.6386 4.34743C12.5357 4.19704 12.4886 4.01541 12.5055 3.83397C12.5223 3.65252 12.6021 3.48268 12.731 3.35382C12.8598 3.22497 13.0297 3.14521 13.2111 3.12835C13.3925 3.11149 13.5742 3.15859 13.7246 3.26149Z" fill="#1C3374"/>
  </symbol>
  <symbol viewBox="0 0 22 22" id="prev">
    <path d="M18.5625 19.25C18.4415 19.25 18.3227 19.218 18.2181 19.1572L5.15556 11.5947C5.05138 11.5343 4.9649 11.4475 4.90479 11.3431C4.84467 11.2388 4.81303 11.1204 4.81303 11C4.81303 10.8796 4.84467 10.7612 4.90479 10.6569C4.9649 10.5525 5.05138 10.4657 5.15556 10.4053L18.2181 2.84281C18.3225 2.78233 18.4411 2.75043 18.5618 2.75031C18.6826 2.75019 18.8012 2.78186 18.9058 2.84214C19.0104 2.90242 19.0973 2.98917 19.1577 3.09369C19.2181 3.1982 19.2499 3.31678 19.25 3.4375V18.5625C19.25 18.7448 19.1776 18.9197 19.0486 19.0486C18.9197 19.1776 18.7448 19.25 18.5625 19.25ZM1.375 2.75H2.75V19.25H1.375V2.75Z" fill="#1C3374"/>
  </symbol>
  <symbol viewBox="0 0 22 22" id="next">
    <path d="M3.4375 2.75C3.55849 2.75003 3.67732 2.78205 3.78194 2.84281L16.8444 10.4053C16.9486 10.4657 17.0351 10.5525 17.0952 10.6569C17.1553 10.7612 17.187 10.8796 17.187 11C17.187 11.1204 17.1553 11.2388 17.0952 11.3431C17.0351 11.4475 16.9486 11.5343 16.8444 11.5947L3.78194 19.1572C3.67746 19.2177 3.5589 19.2496 3.43817 19.2497C3.31745 19.2498 3.19882 19.2181 3.09423 19.1579C2.98963 19.0976 2.90275 19.0108 2.84232 18.9063C2.78189 18.8018 2.75005 18.6832 2.75 18.5625L2.75 3.4375C2.75 3.25516 2.82243 3.08029 2.95136 2.95136C3.0803 2.82243 3.25516 2.75 3.4375 2.75ZM20.625 19.25L19.25 19.25L19.25 2.75L20.625 2.75L20.625 19.25Z" fill="#1C3374"/>
  </symbol>
  <symbol viewBox="0 0 37 35" id="arrow-rectangle">
    <rect width="37" height="35" fill="#0266C1"/>
    <path d="M11.6464 18.3536C11.4512 18.1583 11.4512 17.8417 11.6464 17.6464L14.8284 14.4645C15.0237 14.2692 15.3403 14.2692 15.5355 14.4645C15.7308 14.6597 15.7308 14.9763 15.5355 15.1716L12.7071 18L15.5355 20.8284C15.7308 21.0237 15.7308 21.3403 15.5355 21.5355C15.3403 21.7308 15.0237 21.7308 14.8284 21.5355L11.6464 18.3536ZM25 18.5H12V17.5H25V18.5Z" fill="white"/>
  </symbol>
  <symbol viewBox="0 0 9 14" id="arrow-small">
    <path d="M1 13L7 7L0.999999 1" stroke="#2D383F" stroke-width="2"/>
  </symbol>
  <symbol viewBox="0 0 17 15" id="download">
    <path d="M8.50033 1.125V9.625M8.50033 1.125L5.66699 3.95833M8.50033 1.125L11.3337 3.95833M1.41699 11.0417L1.85687 12.8019C1.93348 13.1084 2.11033 13.3804 2.35931 13.5749C2.60829 13.7693 2.91512 13.875 3.23103 13.875H13.7696C14.0855 13.875 14.3924 13.7693 14.6413 13.5749C14.8903 13.3804 15.0672 13.1084 15.1438 12.8019L15.5837 11.0417" stroke="#1C3374" stroke-width="1.16667" stroke-linecap="round" stroke-linejoin="round"/>
  </symbol>
  <symbol viewBox="0 0 24 24" id="pause">
    <g stroke-width="0"/>
    <g stroke-linecap="round" stroke-linejoin="round"/>
    <g>
      <path opacity="1" d="M22 12C22 17.5228 17.5228 22 12 22C6.47715 22 2 17.5228 2 12C2 6.47715 6.47715 2 12 2C17.5228 2 22 6.47715 22 12Z" fill="#1C3374"/>
      <path d="M8.07612 8.61732C8 8.80109 8 9.03406 8 9.5V14.5C8 14.9659 8 15.1989 8.07612 15.3827C8.17761 15.6277 8.37229 15.8224 8.61732 15.9239C8.80109 16 9.03406 16 9.5 16C9.96594 16 10.1989 16 10.3827 15.9239C10.6277 15.8224 10.8224 15.6277 10.9239 15.3827C11 15.1989 11 14.9659 11 14.5V9.5C11 9.03406 11 8.80109 10.9239 8.61732C10.8224 8.37229 10.6277 8.17761 10.3827 8.07612C10.1989 8 9.96594 8 9.5 8C9.03406 8 8.80109 8 8.61732 8.07612C8.37229 8.17761 8.17761 8.37229 8.07612 8.61732Z" fill="#fff"/>
      <path d="M13.0761 8.61732C13 8.80109 13 9.03406 13 9.5V14.5C13 14.9659 13 15.1989 13.0761 15.3827C13.1776 15.6277 13.3723 15.8224 13.6173 15.9239C13.8011 16 14.0341 16 14.5 16C14.9659 16 15.1989 16 15.3827 15.9239C15.6277 15.8224 15.8224 15.6277 15.9239 15.3827C16 15.1989 16 14.9659 16 14.5V9.5C16 9.03406 16 8.80109 15.9239 8.61732C15.8224 8.37229 15.6277 8.17761 15.3827 8.07612C15.1989 8 14.9659 8 14.5 8C14.0341 8 13.8011 8 13.6173 8.07612C13.3723 8.17761 13.1776 8.37229 13.0761 8.61732Z" fill="#fff"/>
    </g>
  </symbol>
  <symbol viewBox="0 0 24 24" id="vk">
    <rect x="0.5" y="0.5" width="23" height="23" stroke="#0266C1" stroke-opacity="0.1"/>
    <path d="M18.9258 15.2249C18.9088 15.1883 18.893 15.1579 18.8783 15.1336C18.6354 14.6955 18.1712 14.1577 17.4861 13.5201L17.4716 13.5055L17.4643 13.4983L17.457 13.491H17.4497C17.1387 13.1941 16.9418 12.9945 16.8593 12.8923C16.7084 12.6976 16.6746 12.5005 16.7571 12.3008C16.8154 12.1499 17.0342 11.8313 17.4131 11.3446C17.6125 11.0866 17.7703 10.8798 17.8869 10.724C18.7276 9.60458 19.0921 8.88922 18.9803 8.5777L18.9369 8.5049C18.9077 8.46107 18.8324 8.42098 18.711 8.38441C18.5894 8.34793 18.434 8.34189 18.2444 8.36621L16.1452 8.38073C16.1111 8.36866 16.0626 8.36979 15.9993 8.38441C15.9361 8.39904 15.9045 8.40638 15.9045 8.40638L15.868 8.42466L15.839 8.44663C15.8147 8.46115 15.788 8.4867 15.7588 8.52321C15.7297 8.5596 15.7055 8.6023 15.6861 8.65096C15.4575 9.23987 15.1977 9.78741 14.906 10.2935C14.7262 10.5954 14.5611 10.8569 14.4103 11.0784C14.2597 11.2998 14.1333 11.4629 14.0313 11.5674C13.9292 11.6721 13.837 11.7559 13.7543 11.8193C13.6716 11.8826 13.6085 11.9094 13.5649 11.8996C13.5211 11.8898 13.4798 11.8801 13.4408 11.8704C13.3728 11.8266 13.3181 11.767 13.2769 11.6915C13.2355 11.6161 13.2076 11.5211 13.193 11.4068C13.1785 11.2923 13.17 11.1939 13.1675 11.1111C13.1652 11.0284 13.1663 10.9115 13.1712 10.7606C13.1763 10.6097 13.1785 10.5076 13.1785 10.454C13.1785 10.269 13.1821 10.0683 13.1894 9.85171C13.1967 9.63513 13.2027 9.46353 13.2076 9.33711C13.2126 9.21056 13.2149 9.07668 13.2149 8.93553C13.2149 8.79438 13.2063 8.68369 13.1894 8.60335C13.1726 8.52311 13.1469 8.44522 13.113 8.36971C13.0789 8.29428 13.0291 8.23593 12.9636 8.1945C12.898 8.15313 12.8165 8.1203 12.7194 8.0959C12.4618 8.03753 12.1338 8.00595 11.7353 8.00104C10.8315 7.99132 10.2507 8.04978 9.99317 8.17632C9.89112 8.22979 9.79878 8.30284 9.71621 8.39526C9.62872 8.50237 9.61651 8.56082 9.67968 8.57044C9.97129 8.61419 10.1777 8.71885 10.2992 8.88431L10.343 8.97199C10.3771 9.03526 10.4111 9.14725 10.4451 9.30783C10.4791 9.46842 10.501 9.64605 10.5107 9.84064C10.5349 10.196 10.5349 10.5002 10.5107 10.7532C10.4863 11.0064 10.4634 11.2034 10.4414 11.3446C10.4195 11.4857 10.3867 11.6001 10.343 11.6877C10.2992 11.7753 10.2701 11.8288 10.2555 11.8483C10.2409 11.8677 10.2288 11.88 10.2191 11.8848C10.156 11.909 10.0903 11.9213 10.0223 11.9213C9.95418 11.9213 9.87162 11.8872 9.77445 11.8191C9.6773 11.7509 9.57648 11.6573 9.47198 11.538C9.36749 11.4187 9.24964 11.252 9.11838 11.0379C8.98723 10.8238 8.85115 10.5707 8.71023 10.2787L8.59363 10.0669C8.52074 9.93068 8.42117 9.7323 8.29481 9.47197C8.16839 9.21154 8.05664 8.95962 7.95949 8.71627C7.92066 8.61406 7.86232 8.53625 7.78458 8.48271L7.7481 8.46074C7.72385 8.44131 7.68491 8.42067 7.6315 8.39868C7.57801 8.37672 7.5222 8.36097 7.46384 8.35127L5.4666 8.3658C5.26251 8.3658 5.12403 8.41211 5.05111 8.50459L5.02193 8.54835C5.00735 8.57271 5 8.61163 5 8.6652C5 8.71875 5.01458 8.78446 5.04376 8.86227C5.33532 9.54858 5.65239 10.2105 5.99496 10.848C6.33753 11.4856 6.63522 11.9992 6.88784 12.3883C7.14052 12.7777 7.39807 13.1452 7.6605 13.4907C7.92293 13.8363 8.09665 14.0577 8.18164 14.155C8.26673 14.2525 8.33357 14.3254 8.38216 14.3741L8.56442 14.5492C8.68104 14.6661 8.8523 14.806 9.07828 14.969C9.3043 15.1321 9.55453 15.2927 9.82908 15.451C10.1037 15.609 10.4232 15.738 10.7877 15.8378C11.1521 15.9376 11.5068 15.9777 11.8519 15.9584H12.6902C12.8602 15.9437 12.989 15.8901 13.0765 15.7977L13.1055 15.7611C13.125 15.7321 13.1433 15.6869 13.1601 15.6262C13.1772 15.5654 13.1857 15.4984 13.1857 15.4255C13.1807 15.2162 13.1966 15.0276 13.2329 14.8597C13.2693 14.6919 13.3107 14.5653 13.357 14.4801C13.4033 14.395 13.4555 14.3231 13.5136 14.2649C13.5719 14.2065 13.6134 14.1711 13.6378 14.159C13.662 14.1467 13.6813 14.1384 13.6959 14.1334C13.8125 14.0945 13.9498 14.1322 14.1079 14.2467C14.2658 14.361 14.414 14.5023 14.5525 14.6701C14.691 14.8381 14.8575 15.0266 15.0518 15.2358C15.2463 15.4451 15.4163 15.6007 15.562 15.7031L15.7078 15.7907C15.8051 15.8492 15.9314 15.9027 16.087 15.9514C16.2422 16 16.3782 16.0122 16.495 15.9878L18.361 15.9587C18.5456 15.9587 18.6892 15.9281 18.7911 15.8674C18.8931 15.8065 18.9538 15.7395 18.9733 15.6666C18.9928 15.5936 18.9939 15.5108 18.977 15.4183C18.9597 15.3259 18.9427 15.2614 18.9258 15.2249Z" fill="#2D383F"/>
  </symbol>
  <symbol viewBox="0 0 25 25" id="mountain">
    <g clip-path="url(#clip0_248_2161)">
      <path d="M23.4153 24.1879L19.3747 14.7901L15.5583 5.9074C15.4551 5.665 15.1749 5.55224 14.9325 5.65546C14.8192 5.70376 14.7289 5.79404 14.6806 5.9074L11.2744 13.8121L9.93871 16.9177L7.00963 10.1579C6.90634 9.91551 6.62614 9.80274 6.3838 9.90596C6.27044 9.95427 6.18016 10.0445 6.13186 10.1579L3.37928 16.517L0.0399368 24.1831C-0.0654315 24.4246 0.0448861 24.7058 0.286333 24.8112C0.347037 24.8377 0.412572 24.8513 0.478822 24.851H22.9765C23.2399 24.8508 23.4533 24.6371 23.4531 24.3736C23.4531 24.3098 23.4402 24.2467 23.4153 24.1879ZM15.1147 7.29561L18.2107 14.4943H17.1231L15.1576 12.3237C14.9804 12.1287 14.6787 12.1143 14.4837 12.2916C14.4531 12.3194 14.4263 12.351 14.4039 12.3857L13.6692 13.5211H12.4384L15.1147 7.29561ZM6.57074 11.5318L9.018 17.1896H7.68226C7.52007 17.1899 7.36914 17.2726 7.28154 17.4091L6.80449 18.1676L5.57371 16.4311C5.48474 16.3028 5.33864 16.2262 5.18253 16.226H4.54805L6.57074 11.5318ZM1.22779 23.8969L4.13302 17.1801H4.93446L6.42285 19.3029C6.51182 19.4312 6.65792 19.5078 6.81403 19.5081C6.97283 19.5046 7.11947 19.4223 7.20522 19.2886L7.93987 18.1532H9.42826L11.9137 23.8778L1.22779 23.8969ZM12.9584 23.8969L10.4587 18.1246L12.0282 14.4752H13.9364C14.0986 14.4749 14.2495 14.3923 14.3371 14.2558L14.8666 13.44L16.5554 15.3053C16.6455 15.4052 16.7738 15.4624 16.9084 15.4627H18.6162L22.2466 23.9112L12.9584 23.8969Z" fill="#2D383F"/>
      <path d="M7.61096 2.08189C7.16093 0.922602 5.85626 0.347698 4.69703 0.797794C3.83387 1.13286 3.26385 1.96221 3.26028 2.8881C3.25557 2.97075 3.25557 3.05352 3.26028 3.13617C2.13241 3.65997 1.64278 4.99893 2.16658 6.12679C2.52932 6.90778 3.30572 7.41351 4.16667 7.42961L4.19052 7.44869H7.52987C9.01188 7.47112 10.2314 6.28786 10.2538 4.80584C10.2762 3.32383 9.09298 2.10431 7.61096 2.08189ZM7.55849 6.50891H4.21914C3.50512 6.58267 2.86653 6.0637 2.79277 5.34968C2.719 4.63565 3.23797 3.99706 3.952 3.9233C4.21026 3.87124 4.37747 3.61972 4.32541 3.3614C4.32141 3.34166 4.31622 3.32216 4.30978 3.30314C4.26321 3.16968 4.23906 3.02943 4.23823 2.8881C4.23417 2.17146 4.81176 1.58725 5.52841 1.58314C6.16234 1.5795 6.70606 2.03448 6.81429 2.65912C6.85812 2.90993 7.09122 3.08208 7.34382 3.0503C7.41531 3.04559 7.48699 3.04559 7.55849 3.0503C8.51354 3.0503 9.28779 3.82455 9.28779 4.7796C9.28779 5.73466 8.51354 6.50891 7.55849 6.50891Z" fill="#2D383F"/>
      <path d="M23.6966 2.63997C23.7013 2.55733 23.7013 2.47456 23.6966 2.39191C23.6917 1.14836 22.6797 0.144172 21.4362 0.148943C20.517 0.152521 19.6936 0.714604 19.3539 1.56727C17.8794 1.59816 16.7046 2.81392 16.7269 4.29057C16.7493 5.77258 17.9688 6.95584 19.4508 6.93342H22.7902C24.0335 6.91016 25.0226 5.88343 24.9994 4.64006C24.9833 3.77911 24.4776 3.00271 23.6966 2.63997ZM24.0559 4.94758C23.9296 5.54008 23.4102 5.96632 22.8045 5.97455H19.4651C18.5101 5.97455 17.7358 5.2003 17.7358 4.24525C17.7358 3.29019 18.5101 2.51594 19.4651 2.51594C19.5366 2.51123 19.6083 2.51123 19.6798 2.51594C19.9212 2.54099 20.1429 2.38088 20.195 2.14384C20.3146 1.43727 20.9843 0.961417 21.6909 1.08098C22.3975 1.20054 22.8734 1.87026 22.7538 2.57688C22.7416 2.64862 22.7235 2.71922 22.6995 2.78792C22.6153 3.03754 22.7494 3.3082 22.9991 3.39246C23.0181 3.3989 23.0376 3.40415 23.0573 3.40808C23.7582 3.5574 24.2053 4.24668 24.0559 4.94758Z" fill="#2D383F"/>
    </g>
    
  </symbol>
  <symbol viewBox="0 0 23 23" id="pins">
    <g clip-path="url(#clip0_248_2173)">
      <path d="M22.6246 16.6365L18.1102 11.472H20.2913C20.546 11.4714 20.7519 11.2644 20.7514 11.0098C20.7511 10.9084 20.7175 10.8099 20.6556 10.7296L17.0312 5.96623H18.8757C19.1304 5.96589 19.3365 5.75919 19.3363 5.50454C19.3361 5.39271 19.2953 5.28475 19.2215 5.20077L14.7856 0.156126C14.6172 -0.0348923 14.3257 -0.0531642 14.1347 0.115317C14.1202 0.128056 14.1066 0.141716 14.0939 0.156126L9.65332 5.19616C9.4827 5.38522 9.49763 5.67682 9.68663 5.84744C9.77229 5.92473 9.88376 5.9671 9.99916 5.96623H11.8667L10.7508 7.42337L7.76273 4.02492C7.5943 3.8339 7.30288 3.81563 7.11186 3.98411C7.09739 3.99685 7.08379 4.01051 7.07105 4.02492L3.27604 8.33639C3.10796 8.52769 3.12681 8.81906 3.31811 8.98714C3.40209 9.06092 3.51005 9.10167 3.62188 9.10184H5.08362L2.04946 13.0721C1.89919 13.2777 1.94398 13.5662 2.14958 13.7165C2.22636 13.7726 2.31864 13.8036 2.41374 13.8053H4.11988L0.370984 18.1167C0.205442 18.3102 0.228094 18.6013 0.421649 18.7669C0.503959 18.8373 0.608518 18.8765 0.716823 18.8776H5.8168V22.1054C5.8168 22.5994 6.21734 23 6.71138 23H8.11779C8.61182 23.0025 9.01444 22.6041 9.01697 22.11C9.01697 22.1085 9.01697 22.107 9.01697 22.1054V18.8776H12.8443V22.1054C12.8443 22.5994 13.2448 23 13.7388 23H15.1453C15.6393 23 16.0398 22.5994 16.0398 22.1054V17.402H22.2788C22.5334 17.4017 22.7396 17.195 22.7393 16.9403C22.7391 16.8285 22.6984 16.7205 22.6246 16.6365ZM8.09473 22.0777L6.73904 22.1054L6.71138 18.8776H8.09473V22.0777ZM12.8443 17.9553H1.73129L5.50324 13.6531C5.67397 13.4642 5.65916 13.1726 5.47021 13.0018C5.38214 12.9223 5.2668 12.8797 5.14818 12.883H3.34981L6.38398 8.91279C6.53932 8.71099 6.50168 8.42146 6.29988 8.26612C6.21953 8.20428 6.12109 8.17061 6.0197 8.17038H4.63634L7.40306 5.02094L10.1698 8.16116L8.22385 10.7342C8.06851 10.936 8.10615 11.2255 8.30795 11.3809C8.3883 11.4427 8.48674 11.4764 8.58813 11.4766H10.7738L6.25948 16.6411C6.0914 16.8325 6.11025 17.1238 6.30156 17.2919C6.38554 17.3657 6.4935 17.4064 6.60532 17.4066H12.8443V17.9553ZM15.1176 22.0685L13.7665 22.1054L13.7388 17.402H15.1222L15.1176 22.0685ZM15.1453 16.4798H7.61978L12.1341 11.3152C12.3022 11.1239 12.2834 10.8325 12.0921 10.6645C12.0081 10.5907 11.9001 10.5499 11.7883 10.5498H9.52421L13.167 5.78178C13.3199 5.57808 13.2786 5.28902 13.0749 5.13622C12.9963 5.07731 12.901 5.04497 12.8028 5.04399H11.0367L14.4582 1.16137L17.8612 5.04399H16.0813C15.8267 5.04463 15.6207 5.25155 15.6213 5.50621C15.6215 5.6076 15.6552 5.70605 15.717 5.7864L19.3368 10.5498H17.0912C16.8365 10.5501 16.6303 10.7568 16.6306 11.0115C16.6307 11.1233 16.6716 11.2312 16.7453 11.3152L21.2597 16.4798H15.1453Z" fill="#2D383F"/>
    </g>
    
  </symbol>
  <symbol viewBox="0 0 24 24" id="boots">
      <path d="M23.6583 15.6155C24.404 13.2805 23.7904 10.6301 23.1385 8.79354C23.1342 8.72248 23.1123 8.65361 23.0746 8.59327C22.853 7.99671 22.6484 7.50669 22.4737 7.15302C22.7953 7.02497 23.0075 6.71509 23.0106 6.36898V2.8195C23.0106 2.34881 22.6291 1.96729 22.1584 1.96729H11.6889C11.4536 1.96686 11.2625 2.15728 11.2621 2.39265C11.2621 2.40144 11.2624 2.41023 11.2628 2.41896C11.4077 4.97561 11.2202 6.70987 10.6791 7.9328C10.6683 7.94494 10.6583 7.95778 10.6492 7.97115C10.6476 7.9924 10.6476 8.01381 10.6492 8.03506C10.4427 8.48024 10.1633 8.88776 9.82259 9.24095L9.78424 9.26652C9.78424 9.26652 9.78424 9.26652 9.78424 9.29634C9.28468 9.77279 8.70853 10.1617 8.07981 10.4468C6.98439 10.9329 5.86021 11.3512 4.71355 11.6996L4.49624 11.772C0.512129 13.093 -0.00772321 15.4877 0.000798953 16.6893C-0.000266318 16.7064 -0.000266318 16.7234 0.000798953 16.7404V19.7829C0.00143811 19.9309 0.07883 20.068 0.205331 20.1451C1.18176 20.7392 2.23574 21.1951 3.33722 21.5001C3.56375 21.5638 3.79907 21.4318 3.86278 21.2052C3.87476 21.1625 3.88003 21.1182 3.87838 21.074V20.976H4.50476V21.4021C4.50204 21.6132 4.65433 21.7944 4.86269 21.8282C5.23341 21.8878 5.60412 21.9347 5.96631 21.9645C6.08498 21.9745 6.20243 21.9343 6.29015 21.8537C6.37783 21.7724 6.42731 21.658 6.42651 21.5384V21.0015H7.05289V21.6066C7.05289 21.8419 7.24368 22.0327 7.479 22.0327C7.83693 22.0327 8.19486 22.0327 8.57835 21.9816C8.8003 21.9638 8.97107 21.7781 8.97037 21.5555V21.0015H9.59675V21.3765C9.59372 21.6118 9.782 21.8051 10.0173 21.8081C10.042 21.8084 10.0666 21.8066 10.091 21.8026C10.8732 21.6828 11.6442 21.499 12.3963 21.2529L12.4645 21.2231C15.4472 19.5187 17.3391 20.9206 17.4158 20.9802C17.4902 21.038 17.5816 21.0694 17.6758 21.0697H18.2041C18.4395 21.0697 18.6302 20.8789 18.6302 20.6436V19.9235H19.2396V20.6351C19.2396 20.8704 19.4304 21.0612 19.6657 21.0612H21.0378C21.2731 21.0612 21.4639 20.8704 21.4639 20.6351V19.9235H22.0945V20.6351C22.0945 20.8704 22.2853 21.0612 22.5206 21.0612H23.5731C23.8084 21.0612 23.9992 20.8704 23.9992 20.6351V16.0416C24.0034 15.8359 23.8599 15.6566 23.6583 15.6155ZM13.5468 2.82802H13.8962H22.1371V6.3562H13.5468V2.82802ZM8.1906 11.3246L8.19486 11.3502C8.54416 11.6338 8.86651 11.949 9.15786 12.2919C9.08058 12.4204 9.04073 12.568 9.04281 12.718C9.03988 13.1675 9.40191 13.5342 9.85135 13.5371C10.3008 13.5401 10.6676 13.178 10.6705 12.7286C10.6733 12.3051 10.3509 11.9504 9.92912 11.9126C9.6596 11.5452 9.35254 11.2067 9.01298 10.9028C9.39377 10.686 9.75202 10.432 10.0825 10.1443C10.4958 10.532 10.8803 10.9493 11.233 11.3928C11.0848 11.8171 11.3086 12.2813 11.7329 12.4296C12.1572 12.5778 12.6214 12.354 12.7697 11.9297C12.9179 11.5053 12.6941 11.0412 12.2698 10.8929C12.1817 10.8621 12.0891 10.8467 11.9957 10.8474H11.8935C11.5197 10.3768 11.1125 9.93396 10.6748 9.52218C10.8779 9.27211 11.0576 9.00398 11.2117 8.7211C11.8714 9.06449 12.5089 9.44873 13.1207 9.87159C13.1165 10.3258 13.4813 10.6973 13.9354 10.7015C14.3896 10.7057 14.7612 10.3409 14.7654 9.88677C14.7696 9.43259 14.4048 9.06102 13.9506 9.05682C13.8209 9.05559 13.6927 9.0851 13.5766 9.14294C12.9327 8.70704 12.2624 8.31145 11.5696 7.95836C12.0341 6.72265 12.2344 5.08214 12.1406 2.84507H12.6988V6.37324C12.6988 6.84393 13.0803 7.22546 13.551 7.22546H21.5363C21.6471 7.4513 21.8346 7.84331 22.0391 8.35464H21.8644C19.2758 8.37334 17.1925 10.4869 17.2112 13.0755C17.2218 14.5465 17.9224 15.9272 19.1032 16.8044C15.656 17.712 10.4703 18.79 6.10693 18.5088C6.91227 15.2917 5.94927 13.3103 5.32289 12.441C6.2983 12.1211 7.25561 11.7484 8.1906 11.3246ZM4.46641 12.6839C4.92661 13.2251 6.12823 15.0445 5.24619 18.3895C3.71082 18.2688 2.2196 17.8182 0.874321 17.0686C0.859034 16.9712 0.849074 16.873 0.844493 16.7745V16.7447C0.810404 15.8371 1.15129 13.8727 4.46641 12.6839ZM22.9467 20.209V19.4974C22.9467 19.262 22.7559 19.0713 22.5206 19.0713H21.042C20.8067 19.0713 20.6159 19.262 20.6159 19.4974V20.209H20.0918V19.4974C20.0918 19.262 19.901 19.0713 19.6657 19.0713H18.1956C17.9603 19.0713 17.7695 19.262 17.7695 19.4974V20.1919C17.19 19.8297 15.0722 18.7772 12.0682 20.4561C11.5337 20.6325 10.9886 20.7748 10.4362 20.8822V20.5882C10.4362 20.3529 10.2454 20.1621 10.0101 20.1621H8.54C8.30469 20.1621 8.1139 20.3529 8.1139 20.5882V21.172H7.89658V20.5754C7.89658 20.3401 7.70579 20.1493 7.47047 20.1493H5.99188C5.75656 20.1493 5.56577 20.3401 5.56577 20.5754V21.0825L5.34845 21.0527V20.5754C5.34845 20.3401 5.15767 20.1493 4.92235 20.1493H3.44375C3.22702 20.1478 3.04364 20.3091 3.01764 20.5243C2.26136 20.2753 1.53308 19.9482 0.844493 19.5485V18.023C2.70232 19.0073 5.10557 19.3781 7.66222 19.3781C14.4544 19.3781 22.2266 16.7788 23.1427 16.4677L23.147 20.209H22.9467ZM22.7379 15.7135C22.3757 15.8328 21.4852 16.1396 20.2537 16.4677C18.3473 15.5451 17.5497 13.2516 18.4724 11.3451C19.1036 10.041 20.4158 9.20393 21.8644 9.18129C22.0324 9.17895 22.2003 9.18747 22.3672 9.20686L22.3715 9.21964C22.9979 11.0263 23.5603 13.6043 22.7379 15.7135Z" fill="#2D383F"/>
      <path d="M15.1872 3.34375C14.5024 3.34375 13.9473 3.89892 13.9473 4.58372C13.9496 5.26757 14.5034 5.82135 15.1872 5.8237C15.872 5.8237 16.4272 5.26853 16.4272 4.58372C16.4272 3.89892 15.8721 3.34375 15.1872 3.34375ZM15.1872 4.97148C14.9731 4.97148 14.7995 4.7979 14.7995 4.58372C14.7995 4.36955 14.9731 4.19597 15.1872 4.19597C15.4014 4.19597 15.575 4.36955 15.575 4.58372C15.575 4.7979 15.4014 4.97148 15.1872 4.97148Z" fill="#2D383F"/>
  </symbol>
  <symbol viewBox="0 0 25 25" id="map">
    <g clip-path="url(#clip0_248_2190)">
      <path d="M24.1704 22.2803V6.70123C24.1823 6.44571 23.9848 6.22897 23.7293 6.2171C23.6748 6.21456 23.6204 6.22168 23.5684 6.23812V6.26127L21.4844 6.91426C21.7026 6.33016 21.8321 5.71665 21.8688 5.09423C21.8688 2.28077 19.588 0 16.7745 0C13.9611 0 11.6803 2.28077 11.6803 5.09423C11.7128 5.68754 11.833 6.27279 12.0369 6.8309L8.59135 5.59902C8.55135 5.5941 8.51094 5.5941 8.47094 5.59902H8.43389C8.37837 5.60001 8.32344 5.61101 8.2718 5.63144L1.12598 8.41011C0.961171 8.47281 0.846262 8.62361 0.82959 8.79913V16.246V24.3967C0.830342 24.6525 1.03828 24.8592 1.29409 24.8585C1.35065 24.8583 1.40669 24.8478 1.45942 24.8274L8.44315 22.1229L16.4087 24.9756C16.5048 25.0081 16.6089 25.0081 16.7051 24.9756L23.8463 22.7434C24.0469 22.6806 24.18 22.4904 24.1704 22.2803ZM16.7745 0.926224C19.0765 0.926224 20.9425 2.79228 20.9425 5.09423C20.9425 6.905 18.2241 11.9066 16.7745 14.3565C15.325 11.8881 12.6065 6.88184 12.6065 5.09423C12.6065 2.79228 14.4726 0.926224 16.7745 0.926224ZM23.2581 21.9608L17.0246 23.9105V20.3769C17.0246 20.1212 16.8173 19.9138 16.5615 19.9138C16.3057 19.9138 16.0984 20.1212 16.0984 20.3769V23.8781L8.90163 21.3032V18.3392C8.90163 18.0835 8.69427 17.8761 8.43852 17.8761C8.18277 17.8761 7.97541 18.0835 7.97541 18.3392V21.3032L1.75581 23.7252V16.5655L4.04359 15.6393C4.2884 15.5652 4.42675 15.3067 4.35266 15.0618C4.27856 14.817 4.02003 14.6787 3.77521 14.7528C3.74963 14.7605 3.72473 14.7705 3.70083 14.7825L1.75576 15.5652V9.11868L7.97535 6.71049V8.09983C7.97535 8.35558 8.18271 8.56294 8.43846 8.56294C8.69421 8.56294 8.90157 8.35558 8.90157 8.09983V6.69197L12.4536 7.96553C13.5928 10.5687 14.9032 13.0936 16.3762 15.5235C16.5088 15.7422 16.7936 15.8119 17.0123 15.6793C17.076 15.6407 17.1295 15.5872 17.1681 15.5235C18.6339 13.1079 19.9396 10.5985 21.0768 8.01184L23.2442 7.33106L23.258 14.9215L20.9101 15.4911C20.6543 15.5218 20.4718 15.754 20.5025 16.0098C20.5332 16.2655 20.7655 16.448 21.0212 16.4173C21.0581 16.4218 21.0954 16.4218 21.1324 16.4173L23.258 15.8986V21.9608H23.2581Z" fill="#2D383F"/>
      <path d="M16.7556 2.40332C15.2696 2.40332 14.0649 3.60799 14.0649 5.094C14.0649 6.58001 15.2696 7.78468 16.7556 7.78468C18.2406 7.78213 19.4438 6.57897 19.4463 5.094C19.4463 3.60799 18.2416 2.40332 16.7556 2.40332ZM16.7556 6.85846C15.7895 6.84584 15.0121 6.06028 15.0097 5.094H14.9912C14.9912 4.1195 15.7811 3.32954 16.7556 3.32954C17.7301 3.32954 18.5201 4.1195 18.5201 5.094C18.5201 6.0685 17.7301 6.85846 16.7556 6.85846Z" fill="#2D383F"/>
      <path d="M10.6981 13.9672V13.9811L8.45661 13.0132C8.34251 12.9656 8.21411 12.9656 8.10001 13.0132L6.20589 13.7774C5.96802 13.8733 5.85294 14.1439 5.94886 14.3817C6.04478 14.6196 6.31536 14.7347 6.55322 14.6387L8.26673 13.9487L10.3276 14.8194C10.3861 14.8443 10.4492 14.8569 10.5128 14.8564C10.7686 14.8585 10.9776 14.6529 10.9797 14.3971C10.9812 14.2101 10.8701 14.0405 10.6981 13.9672Z" fill="#2D383F"/>
      <path d="M18.27 16.6161C18.201 16.393 17.9766 16.2562 17.7467 16.2969L17.7513 16.2599L16.6028 16.5377L14.6578 15.6949C14.4224 15.5926 14.1487 15.7004 14.0465 15.9357C13.9442 16.171 14.052 16.4447 14.2873 16.547L16.3713 17.4732C16.4298 17.4982 16.4929 17.5108 16.5565 17.5103H16.6677L17.9644 17.1954C18.2087 17.1198 18.3455 16.8604 18.27 16.6161Z" fill="#2D383F"/>
    </g>
    
  </symbol>
</symbol><symbol id="logo">
  <symbol viewBox="0 0 142 42" id="logo-dark">
    <g clip-path="url(#clip0_131_2520)">
      <path d="M15.7314 27.2445L19.4995 23.359L23.7857 27.2445H31.1334L19.4524 16.0044L7.86561 27.2445H15.7314Z" fill="#2D383F"/>
      <path d="M26.5178 9.20485L20.9599 14.7555L24.6337 18.4559L26.5178 16.6057L36.8328 26.6894C34.4778 32.8414 28.4489 37.2357 21.3367 37.2357C12.1991 37.2357 4.80428 29.9736 4.80428 21C4.85138 12.0264 12.2462 4.76432 21.3838 4.76432C29.4851 4.76432 36.2676 10.5463 37.6336 18.0859L42.6262 23.2665C42.7204 22.5264 42.7675 21.7401 42.7675 21C42.7675 15.4031 40.5538 10.13 36.5031 6.15198C32.4525 2.17401 27.083 0 21.3838 0C15.6375 0 10.3151 2.17401 6.26441 6.15198C2.21374 10.13 0 15.3568 0 21C0 26.6432 2.21374 31.87 6.26441 35.848C10.3151 39.826 15.6846 42 21.3838 42C27.083 42 32.4525 39.826 36.5031 35.848C38.9995 33.3965 40.7893 30.4824 41.7784 27.2907C41.9668 26.7357 42.1081 26.1344 42.2494 25.5793L37.9162 21.0925L26.5178 9.20485Z" fill="#2D383F"/>
      <path d="M60.4115 13.4945H63.5561L61.8408 21.9634H67.1453L66.6371 24.4121H58.1881L60.4115 13.4945Z" fill="#2D383F"/>
      <path d="M70.1049 13.4945H73.2495L71.026 24.4121H67.8815L70.1049 13.4945Z" fill="#2D383F"/>
      <path d="M78.1389 15.8808L77.6466 18.2826H82.554L82.0617 20.6689H77.1701L76.4078 24.4121H73.2632L75.4867 13.4945H84.1898L83.6975 15.8808H78.1389Z" fill="#2D383F"/>
      <path d="M88.2809 15.8808L87.9157 17.7212H92.8549L92.3943 20.0295H87.4392L87.0422 22.0258H92.8707L92.3625 24.4121H83.4529L85.6764 13.4945H94.3795L93.8872 15.8808H88.2809Z" fill="#2D383F"/>
      <path d="M98.205 15.9431H94.7904L95.2987 13.4945H105.256L104.748 15.9431H101.35L99.6185 24.4121H96.4739L98.205 15.9431Z" fill="#2D383F"/>
      <path d="M110.053 24.6305C108.93 24.6305 107.951 24.4277 107.115 24.0222C106.289 23.6167 105.648 23.05 105.193 22.3222C104.748 21.5943 104.526 20.7625 104.526 19.8267C104.526 18.579 104.817 17.456 105.399 16.4578C105.992 15.4596 106.813 14.6798 107.861 14.1183C108.92 13.5569 110.122 13.2761 111.466 13.2761C112.588 13.2761 113.563 13.4789 114.388 13.8844C115.225 14.2899 115.865 14.8566 116.31 15.5844C116.765 16.3123 116.993 17.1441 116.993 18.0799C116.993 19.3276 116.697 20.4506 116.104 21.4488C115.521 22.4469 114.701 23.2268 113.642 23.7882C112.594 24.3497 111.397 24.6305 110.053 24.6305ZM110.323 22.0726C111.021 22.0726 111.636 21.9011 112.165 21.5579C112.694 21.2148 113.102 20.7573 113.388 20.1854C113.674 19.6032 113.817 18.9637 113.817 18.267C113.817 17.5288 113.584 16.9413 113.118 16.5046C112.663 16.0575 112.022 15.834 111.196 15.834C110.497 15.834 109.883 16.0055 109.354 16.3487C108.825 16.6918 108.417 17.1545 108.131 17.7368C107.845 18.3086 107.702 18.9429 107.702 19.6395C107.702 20.3778 107.93 20.9705 108.385 21.4176C108.851 21.8543 109.497 22.0726 110.323 22.0726Z" fill="#2D383F"/>
      <path d="M122.896 24.6305C121.933 24.6305 121.102 24.4745 120.403 24.1626C119.704 23.8402 119.169 23.3827 118.799 22.7901C118.428 22.1974 118.243 21.5007 118.243 20.7001C118.243 20.3674 118.285 19.9827 118.37 19.546L119.609 13.4945H122.753L121.53 19.4992C121.467 19.8111 121.435 20.097 121.435 20.357C121.435 21.5007 122.049 22.0726 123.277 22.0726C123.944 22.0726 124.469 21.8751 124.85 21.4799C125.241 21.0744 125.533 20.4142 125.723 19.4992L126.946 13.4945H130.043L128.788 19.6863C128.111 22.9824 126.147 24.6305 122.896 24.6305Z" fill="#2D383F"/>
      <path d="M141.416 16.9725C141.416 17.9707 141.146 18.8337 140.606 19.5616C140.066 20.279 139.309 20.8041 138.335 21.1368L140.225 24.4121H136.938L135.286 21.5111H133.698L133.11 24.4121H129.966L132.189 13.4945H136.938C138.357 13.4945 139.458 13.8012 140.241 14.4147C141.025 15.0281 141.416 15.8808 141.416 16.9725ZM138.24 17.2689C138.24 16.8218 138.087 16.489 137.779 16.2707C137.472 16.0419 137.044 15.9275 136.493 15.9275H134.841L134.174 19.1249H136.048C136.747 19.1249 137.287 18.9637 137.668 18.6414C138.049 18.319 138.24 17.8615 138.24 17.2689Z" fill="#2D383F"/>
      <path d="M60.2817 34.7063C59.8987 34.7063 59.5507 34.6231 59.2376 34.4567C58.9283 34.2867 58.6852 34.0553 58.5085 33.7623C58.3354 33.4694 58.2488 33.1403 58.2488 32.775C58.2488 32.4097 58.3354 32.0806 58.5085 31.7877C58.6852 31.4947 58.9283 31.2651 59.2376 31.0987C59.5507 30.9287 59.8987 30.8437 60.2817 30.8437C60.6647 30.8437 61.009 30.9269 61.3147 31.0933C61.624 31.2596 61.8671 31.4911 62.0439 31.7877C62.2206 32.0806 62.309 32.4097 62.309 32.775C62.309 33.1403 62.2206 33.4712 62.0439 33.7678C61.8671 34.0607 61.624 34.2904 61.3147 34.4567C61.009 34.6231 60.6647 34.7063 60.2817 34.7063ZM60.2817 34.3482C60.5873 34.3482 60.8635 34.2813 61.1103 34.1475C61.357 34.0101 61.5504 33.822 61.6903 33.5833C61.8303 33.341 61.9002 33.0716 61.9002 32.775C61.9002 32.4784 61.8303 32.2108 61.6903 31.9721C61.5504 31.7298 61.357 31.5417 61.1103 31.4079C60.8635 31.2705 60.5873 31.2018 60.2817 31.2018C59.976 31.2018 59.698 31.2705 59.4475 31.4079C59.2008 31.5417 59.0056 31.7298 58.862 31.9721C58.7221 32.2108 58.6521 32.4784 58.6521 32.775C58.6521 33.0716 58.7221 33.341 58.862 33.5833C59.0056 33.822 59.2008 34.0101 59.4475 34.1475C59.698 34.2813 59.976 34.3482 60.2817 34.3482Z" fill="#2D383F"/>
      <path d="M64.6876 31.7985C64.9601 31.7985 65.2068 31.86 65.4278 31.983C65.6488 32.1023 65.8219 32.2723 65.9471 32.4929C66.0723 32.7135 66.1349 32.9649 66.1349 33.247C66.1349 33.5327 66.0723 33.7858 65.9471 34.0065C65.8219 34.2271 65.6488 34.3989 65.4278 34.5218C65.2105 34.6412 64.9638 34.7008 64.6876 34.7008C64.4519 34.7008 64.2383 34.6538 64.0468 34.5598C63.859 34.4622 63.7043 34.3211 63.5828 34.1367V35.7262H63.1906V31.8202H63.5662V32.3844C63.684 32.1963 63.8387 32.0517 64.0302 31.9504C64.2254 31.8492 64.4445 31.7985 64.6876 31.7985ZM64.66 34.3591C64.8625 34.3591 65.0466 34.3139 65.2124 34.2235C65.3781 34.1294 65.507 33.9974 65.5991 33.8274C65.6948 33.6575 65.7427 33.464 65.7427 33.247C65.7427 33.03 65.6948 32.8383 65.5991 32.6719C65.507 32.5019 65.3781 32.3699 65.2124 32.2759C65.0466 32.1819 64.8625 32.1349 64.66 32.1349C64.4537 32.1349 64.2678 32.1819 64.102 32.2759C63.94 32.3699 63.8111 32.5019 63.7154 32.6719C63.6233 32.8383 63.5772 33.03 63.5772 33.247C63.5772 33.464 63.6233 33.6575 63.7154 33.8274C63.8111 33.9974 63.94 34.1294 64.102 34.2235C64.2678 34.3139 64.4537 34.3591 64.66 34.3591Z" fill="#2D383F"/>
      <path d="M69.0325 32.162H67.3698V34.6737H66.9776V31.8202H69.0325V32.162Z" fill="#2D383F"/>
      <path d="M70.5992 31.7985C70.9785 31.7985 71.2694 31.8925 71.472 32.0806C71.6745 32.2651 71.7758 32.5399 71.7758 32.9052V34.6737H71.4002V34.2289C71.3118 34.3772 71.1811 34.4929 71.008 34.5761C70.8386 34.6593 70.636 34.7008 70.4003 34.7008C70.0762 34.7008 69.8185 34.6249 69.627 34.473C69.4355 34.3211 69.3397 34.1204 69.3397 33.8708C69.3397 33.6285 69.4281 33.4332 69.6049 33.2849C69.7853 33.1367 70.0707 33.0625 70.4611 33.0625H71.3836V32.8889C71.3836 32.643 71.3136 32.4567 71.1737 32.3302C71.0337 32.2 70.8294 32.1349 70.5605 32.1349C70.3764 32.1349 70.1996 32.1656 70.0302 32.2271C69.8608 32.285 69.7153 32.3663 69.5938 32.4712L69.417 32.1837C69.5643 32.0607 69.7411 31.9667 69.9473 31.9016C70.1536 31.8329 70.3709 31.7985 70.5992 31.7985ZM70.4611 34.3971C70.682 34.3971 70.8717 34.3482 71.0301 34.2506C71.1884 34.1493 71.3063 34.0047 71.3836 33.8166V33.35H70.4721C69.975 33.35 69.7264 33.52 69.7264 33.86C69.7264 34.0263 69.7908 34.1584 69.9197 34.256C70.0486 34.35 70.2291 34.3971 70.4611 34.3971Z" fill="#2D383F"/>
      <path d="M72.8199 31.8202H73.2121V33.0842H75.0406V31.8202H75.4328V34.6737H75.0406V33.4151H73.2121V34.6737H72.8199V31.8202Z" fill="#2D383F"/>
      <path d="M76.5476 31.8202H76.9398V34.0878L78.8787 31.8202H79.2267V34.6737H78.8345V32.4061L76.9011 34.6737H76.5476V31.8202Z" fill="#2D383F"/>
      <path d="M81.7056 33.1873C81.9118 33.2343 82.0701 33.3157 82.1806 33.4314C82.2948 33.5471 82.3519 33.6882 82.3519 33.8546C82.3519 34.0209 82.293 34.1692 82.1751 34.2994C82.0609 34.4296 81.9044 34.5309 81.7056 34.6032C81.5067 34.6719 81.2876 34.7063 81.0482 34.7063C80.8383 34.7063 80.632 34.6773 80.4295 34.6195C80.227 34.558 80.0502 34.4694 79.8992 34.3537L80.0318 34.0661C80.1643 34.1638 80.319 34.2397 80.4958 34.294C80.6726 34.3482 80.8512 34.3754 81.0316 34.3754C81.3005 34.3754 81.5196 34.3265 81.689 34.2289C81.8621 34.1276 81.9486 33.992 81.9486 33.822C81.9486 33.6701 81.8786 33.5526 81.7387 33.4694C81.5988 33.3826 81.4073 33.3392 81.1642 33.3392H80.667V33.0571H81.1421C81.3594 33.0571 81.5343 33.0173 81.6669 32.9377C81.7995 32.8546 81.8658 32.7443 81.8658 32.6068C81.8658 32.4549 81.7903 32.3356 81.6393 32.2488C81.492 32.162 81.2986 32.1186 81.0592 32.1186C80.7462 32.1186 80.4369 32.1963 80.1312 32.3519L80.0207 32.0535C80.3669 31.8763 80.726 31.7877 81.0979 31.7877C81.3189 31.7877 81.5177 31.8202 81.6945 31.8853C81.875 31.9468 82.0149 32.0354 82.1143 32.1511C82.2175 32.2669 82.269 32.4007 82.269 32.5526C82.269 32.6972 82.2175 32.8256 82.1143 32.9377C82.0149 33.0499 81.8786 33.133 81.7056 33.1873Z" fill="#2D383F"/>
      <path d="M84.2421 31.7985C84.6214 31.7985 84.9123 31.8925 85.1149 32.0806C85.3174 32.2651 85.4187 32.5399 85.4187 32.9052V34.6737H85.0431V34.2289C84.9547 34.3772 84.824 34.4929 84.6509 34.5761C84.4815 34.6593 84.2789 34.7008 84.0432 34.7008C83.7191 34.7008 83.4614 34.6249 83.2699 34.473C83.0784 34.3211 82.9826 34.1204 82.9826 33.8708C82.9826 33.6285 83.071 33.4332 83.2478 33.2849C83.4282 33.1367 83.7136 33.0625 84.104 33.0625H85.0265V32.8889C85.0265 32.643 84.9565 32.4567 84.8166 32.3302C84.6766 32.2 84.4723 32.1349 84.2034 32.1349C84.0193 32.1349 83.8425 32.1656 83.6731 32.2271C83.5037 32.285 83.3582 32.3663 83.2367 32.4712L83.0599 32.1837C83.2073 32.0607 83.384 31.9667 83.5902 31.9016C83.7965 31.8329 84.0138 31.7985 84.2421 31.7985ZM84.104 34.3971C84.325 34.3971 84.5146 34.3482 84.673 34.2506C84.8313 34.1493 84.9492 34.0047 85.0265 33.8166V33.35H84.115C83.6179 33.35 83.3693 33.52 83.3693 33.86C83.3693 34.0263 83.4337 34.1584 83.5626 34.256C83.6915 34.35 83.872 34.3971 84.104 34.3971Z" fill="#2D383F"/>
      <path d="M89.49 34.3374V35.3898H89.1199V34.6737H86.4628V31.8202H86.855V34.3374H88.6282V31.8202H89.0204V34.3374H89.49Z" fill="#2D383F"/>
      <path d="M90.239 31.8202H90.6312V34.0878L92.5702 31.8202H92.9182V34.6737H92.526V32.4061L90.5926 34.6737H90.239V31.8202Z" fill="#2D383F"/>
      <path d="M96.2739 31.8202V34.6737H95.9148V33.7298H94.8929L94.219 34.6737H93.7936L94.5173 33.6755C94.2926 33.6141 94.1195 33.5092 93.998 33.3609C93.8765 33.2126 93.8157 33.0245 93.8157 32.7967C93.8157 32.4784 93.9262 32.2361 94.1472 32.0698C94.3681 31.9034 94.6701 31.8202 95.0531 31.8202H96.2739ZM94.2134 32.8076C94.2134 33.2307 94.4878 33.4423 95.0365 33.4423H95.9148V32.162H95.0641C94.497 32.162 94.2134 32.3772 94.2134 32.8076Z" fill="#2D383F"/>
      <path d="M101.445 31.8202V34.6737H101.053V32.162H99.2302V34.6737H98.838V31.8202H101.445Z" fill="#2D383F"/>
      <path d="M103.759 34.7008C103.479 34.7008 103.227 34.6394 103.002 34.5164C102.778 34.3898 102.601 34.2162 102.472 33.9956C102.343 33.775 102.279 33.5254 102.279 33.247C102.279 32.9685 102.343 32.7189 102.472 32.4983C102.601 32.2777 102.778 32.1059 103.002 31.983C103.227 31.86 103.479 31.7985 103.759 31.7985C104.039 31.7985 104.291 31.86 104.516 31.983C104.74 32.1059 104.915 32.2777 105.041 32.4983C105.169 32.7189 105.234 32.9685 105.234 33.247C105.234 33.5254 105.169 33.775 105.041 33.9956C104.915 34.2162 104.74 34.3898 104.516 34.5164C104.291 34.6394 104.039 34.7008 103.759 34.7008ZM103.759 34.3591C103.965 34.3591 104.149 34.3139 104.311 34.2235C104.477 34.1294 104.606 33.9974 104.698 33.8274C104.79 33.6575 104.836 33.464 104.836 33.247C104.836 33.03 104.79 32.8365 104.698 32.6665C104.606 32.4965 104.477 32.3663 104.311 32.2759C104.149 32.1819 103.965 32.1349 103.759 32.1349C103.553 32.1349 103.367 32.1819 103.201 32.2759C103.039 32.3663 102.91 32.4965 102.814 32.6665C102.722 32.8365 102.676 33.03 102.676 33.247C102.676 33.464 102.722 33.6575 102.814 33.8274C102.91 33.9974 103.039 34.1294 103.201 34.2235C103.367 34.3139 103.553 34.3591 103.759 34.3591Z" fill="#2D383F"/>
      <path d="M107.787 34.6737L106.865 33.4802L105.936 34.6737H105.495L106.644 33.209L105.55 31.8202H105.992L106.865 32.9377L107.737 31.8202H108.168L107.074 33.209L108.234 34.6737H107.787Z" fill="#2D383F"/>
      <path d="M109.974 34.7008C109.694 34.7008 109.441 34.6394 109.217 34.5164C108.992 34.3898 108.815 34.2162 108.686 33.9956C108.558 33.775 108.493 33.5254 108.493 33.247C108.493 32.9685 108.558 32.7189 108.686 32.4983C108.815 32.2777 108.992 32.1059 109.217 31.983C109.441 31.86 109.694 31.7985 109.974 31.7985C110.253 31.7985 110.506 31.86 110.73 31.983C110.955 32.1059 111.13 32.2777 111.255 32.4983C111.384 32.7189 111.448 32.9685 111.448 33.247C111.448 33.5254 111.384 33.775 111.255 33.9956C111.13 34.2162 110.955 34.3898 110.73 34.5164C110.506 34.6394 110.253 34.7008 109.974 34.7008ZM109.974 34.3591C110.18 34.3591 110.364 34.3139 110.526 34.2235C110.692 34.1294 110.821 33.9974 110.913 33.8274C111.005 33.6575 111.051 33.464 111.051 33.247C111.051 33.03 111.005 32.8365 110.913 32.6665C110.821 32.4965 110.692 32.3663 110.526 32.2759C110.364 32.1819 110.18 32.1349 109.974 32.1349C109.767 32.1349 109.581 32.1819 109.416 32.2759C109.254 32.3663 109.125 32.4965 109.029 32.6665C108.937 32.8365 108.891 33.03 108.891 33.247C108.891 33.464 108.937 33.6575 109.029 33.8274C109.125 33.9974 109.254 34.1294 109.416 34.2235C109.581 34.3139 109.767 34.3591 109.974 34.3591Z" fill="#2D383F"/>
      <path d="M115.104 34.3374V35.3627H114.734V34.6737H112.132V35.3627H111.762V34.3374H111.928C112.123 34.3265 112.256 34.1855 112.326 33.9142C112.396 33.643 112.444 33.2632 112.469 32.775L112.508 31.8202H114.651V34.3374H115.104ZM112.828 32.7967C112.81 33.2018 112.775 33.5363 112.723 33.8003C112.672 34.0607 112.58 34.2397 112.447 34.3374H114.259V32.162H112.862L112.828 32.7967Z" fill="#2D383F"/>
      <path d="M117.067 34.7008C116.788 34.7008 116.535 34.6394 116.311 34.5164C116.086 34.3898 115.909 34.2162 115.78 33.9956C115.651 33.775 115.587 33.5254 115.587 33.247C115.587 32.9685 115.651 32.7189 115.78 32.4983C115.909 32.2777 116.086 32.1059 116.311 31.983C116.535 31.86 116.788 31.7985 117.067 31.7985C117.347 31.7985 117.6 31.86 117.824 31.983C118.049 32.1059 118.224 32.2777 118.349 32.4983C118.478 32.7189 118.542 32.9685 118.542 33.247C118.542 33.5254 118.478 33.775 118.349 33.9956C118.224 34.2162 118.049 34.3898 117.824 34.5164C117.6 34.6394 117.347 34.7008 117.067 34.7008ZM117.067 34.3591C117.274 34.3591 117.458 34.3139 117.62 34.2235C117.786 34.1294 117.914 33.9974 118.006 33.8274C118.099 33.6575 118.145 33.464 118.145 33.247C118.145 33.03 118.099 32.8365 118.006 32.6665C117.914 32.4965 117.786 32.3663 117.62 32.2759C117.458 32.1819 117.274 32.1349 117.067 32.1349C116.861 32.1349 116.675 32.1819 116.509 32.2759C116.347 32.3663 116.219 32.4965 116.123 32.6665C116.031 32.8365 115.985 33.03 115.985 33.247C115.985 33.464 116.031 33.6575 116.123 33.8274C116.219 33.9974 116.347 34.1294 116.509 34.2235C116.675 34.3139 116.861 34.3591 117.067 34.3591Z" fill="#2D383F"/>
      <path d="M121.231 33.1981C121.625 33.2886 121.822 33.5218 121.822 33.898C121.822 34.1475 121.728 34.3392 121.54 34.473C121.353 34.6068 121.073 34.6737 120.701 34.6737H119.381V31.8202H120.662C120.994 31.8202 121.253 31.8835 121.441 32.0101C121.629 32.1367 121.723 32.3175 121.723 32.5526C121.723 32.7081 121.679 32.8419 121.59 32.954C121.505 33.0625 121.386 33.1439 121.231 33.1981ZM119.762 33.0896H120.635C120.859 33.0896 121.03 33.0481 121.148 32.9649C121.27 32.8817 121.331 32.7605 121.331 32.6014C121.331 32.4423 121.27 32.3229 121.148 32.2434C121.03 32.1638 120.859 32.124 120.635 32.124H119.762V33.0896ZM120.684 34.3699C120.935 34.3699 121.122 34.3301 121.248 34.2506C121.373 34.171 121.436 34.0462 121.436 33.8763C121.436 33.7063 121.378 33.5815 121.264 33.5019C121.15 33.4188 120.97 33.3772 120.723 33.3772H119.762V34.3699H120.684Z" fill="#2D383F"/>
      <path d="M126.038 33.1981C126.432 33.2886 126.629 33.5218 126.629 33.898C126.629 34.1475 126.535 34.3392 126.347 34.473C126.159 34.6068 125.879 34.6737 125.507 34.6737H124.187V31.8202H125.469C125.8 31.8202 126.06 31.8835 126.248 32.0101C126.435 32.1367 126.529 32.3175 126.529 32.5526C126.529 32.7081 126.485 32.8419 126.397 32.954C126.312 33.0625 126.192 33.1439 126.038 33.1981ZM124.568 33.0896H125.441C125.666 33.0896 125.837 33.0481 125.955 32.9649C126.076 32.8817 126.137 32.7605 126.137 32.6014C126.137 32.4423 126.076 32.3229 125.955 32.2434C125.837 32.1638 125.666 32.124 125.441 32.124H124.568V33.0896ZM125.491 34.3699C125.741 34.3699 125.929 34.3301 126.054 34.2506C126.179 34.171 126.242 34.0462 126.242 33.8763C126.242 33.7063 126.185 33.5815 126.071 33.5019C125.957 33.4188 125.776 33.3772 125.529 33.3772H124.568V34.3699H125.491Z" fill="#2D383F"/>
      <path d="M131.049 32.162H129.386V34.6737H128.994V31.8202H131.049V32.162Z" fill="#2D383F"/>
      <path d="M132.679 34.7008C132.399 34.7008 132.147 34.6394 131.923 34.5164C131.698 34.3898 131.521 34.2162 131.392 33.9956C131.263 33.775 131.199 33.5254 131.199 33.247C131.199 32.9685 131.263 32.7189 131.392 32.4983C131.521 32.2777 131.698 32.1059 131.923 31.983C132.147 31.86 132.399 31.7985 132.679 31.7985C132.959 31.7985 133.211 31.86 133.436 31.983C133.661 32.1059 133.836 32.2777 133.961 32.4983C134.09 32.7189 134.154 32.9685 134.154 33.247C134.154 33.5254 134.09 33.775 133.961 33.9956C133.836 34.2162 133.661 34.3898 133.436 34.5164C133.211 34.6394 132.959 34.7008 132.679 34.7008ZM132.679 34.3591C132.886 34.3591 133.07 34.3139 133.232 34.2235C133.397 34.1294 133.526 33.9974 133.618 33.8274C133.71 33.6575 133.757 33.464 133.757 33.247C133.757 33.03 133.71 32.8365 133.618 32.6665C133.526 32.4965 133.397 32.3663 133.232 32.2759C133.07 32.1819 132.886 32.1349 132.679 32.1349C132.473 32.1349 132.287 32.1819 132.121 32.2759C131.959 32.3663 131.83 32.4965 131.735 32.6665C131.643 32.8365 131.597 33.03 131.597 33.247C131.597 33.464 131.643 33.6575 131.735 33.8274C131.83 33.9974 131.959 34.1294 132.121 34.2235C132.287 34.3139 132.473 34.3591 132.679 34.3591Z" fill="#2D383F"/>
      <path d="M136.49 31.7985C136.762 31.7985 137.009 31.86 137.23 31.983C137.451 32.1023 137.624 32.2723 137.749 32.4929C137.874 32.7135 137.937 32.9649 137.937 33.247C137.937 33.5327 137.874 33.7858 137.749 34.0065C137.624 34.2271 137.451 34.3989 137.23 34.5218C137.012 34.6412 136.766 34.7008 136.49 34.7008C136.254 34.7008 136.04 34.6538 135.849 34.5598C135.661 34.4622 135.506 34.3211 135.385 34.1367V35.7262H134.992V31.8202H135.368V32.3844C135.486 32.1963 135.641 32.0517 135.832 31.9504C136.027 31.8492 136.246 31.7985 136.49 31.7985ZM136.462 34.3591C136.664 34.3591 136.849 34.3139 137.014 34.2235C137.18 34.1294 137.309 33.9974 137.401 33.8274C137.497 33.6575 137.545 33.464 137.545 33.247C137.545 33.03 137.497 32.8383 137.401 32.6719C137.309 32.5019 137.18 32.3699 137.014 32.2759C136.849 32.1819 136.664 32.1349 136.462 32.1349C136.256 32.1349 136.07 32.1819 135.904 32.2759C135.742 32.3699 135.613 32.5019 135.517 32.6719C135.425 32.8383 135.379 33.03 135.379 33.247C135.379 33.464 135.425 33.6575 135.517 33.8274C135.613 33.9974 135.742 34.1294 135.904 34.2235C136.07 34.3139 136.256 34.3591 136.462 34.3591Z" fill="#2D383F"/>
      <path d="M140 32.8293C140.365 32.8329 140.643 32.9124 140.834 33.0679C141.026 33.2235 141.122 33.4477 141.122 33.7406C141.122 34.0444 141.019 34.2777 140.812 34.4404C140.606 34.6032 140.311 34.6828 139.928 34.6791L138.779 34.6737V31.8202H139.172V32.8184L140 32.8293ZM141.608 31.8202H142V34.6737H141.608V31.8202ZM139.906 34.3862C140.175 34.3898 140.378 34.3374 140.514 34.2289C140.654 34.1168 140.724 33.954 140.724 33.7406C140.724 33.5309 140.656 33.3754 140.52 33.2741C140.383 33.1728 140.179 33.1204 139.906 33.1168L139.172 33.1059V34.3754L139.906 34.3862Z" fill="#2D383F"/>
    </g>
    
  </symbol>
  <symbol viewBox="0 0 205 62" id="logo-light">
    <g clip-path="url(#clip0_303_441)">
      <path d="M22.7109 40.218L28.1507 34.4824L34.3385 40.218H44.9461L28.0827 23.6255L11.3553 40.218H22.7109Z" fill="white"/>
      <path d="M38.2827 13.5881L30.259 21.7819L35.5628 27.2445L38.2827 24.5132L53.1742 39.3987C49.7743 48.4802 41.0706 54.967 30.8029 54.967C17.6114 54.967 6.93576 44.2467 6.93576 31C7.00376 17.7533 17.6794 7.03304 30.8709 7.03304C42.5665 7.03304 52.3582 15.5683 54.3301 26.6982L61.5379 34.3458C61.6739 33.2533 61.7419 32.0925 61.7419 31C61.7419 22.7379 58.546 14.9537 52.6982 9.0815C46.8504 3.20925 39.0987 0 30.8709 0C22.5752 0 14.8915 3.20925 9.04369 9.0815C3.19589 14.9537 0 22.6696 0 31C0 39.3304 3.19589 47.0463 9.04369 52.9185C14.8915 58.7907 22.6432 62 30.8709 62C39.0987 62 46.8504 58.7907 52.6982 52.9185C56.3021 49.2996 58.886 44.9978 60.3139 40.2863C60.5859 39.467 60.7899 38.5793 60.9939 37.7599L54.7381 31.1366L38.2827 13.5881Z" fill="white"/>
      <path d="M87.2138 19.9204H91.7535L89.2773 32.4222H96.9351L96.2015 36.0369H84.0039L87.2138 19.9204Z" fill="white"/>
      <path d="M101.208 19.9204H105.747L102.538 36.0369H97.9979L101.208 19.9204Z" fill="white"/>
      <path d="M112.806 23.443L112.095 26.9887H119.18L118.469 30.5113H111.408L110.307 36.0369H105.767L108.977 19.9204H121.542L120.831 23.443H112.806Z" fill="white"/>
      <path d="M127.448 23.443L126.921 26.1598H134.051L133.386 29.5673H126.233L125.659 32.5143H134.074L133.34 36.0369H120.478L123.688 19.9204H136.252L135.541 23.443H127.448Z" fill="white"/>
      <path d="M141.775 23.5351H136.845L137.579 19.9204H151.955L151.221 23.5351H146.315L143.815 36.0369H139.276L141.775 23.5351Z" fill="white"/>
      <path d="M158.879 36.3593C157.259 36.3593 155.845 36.06 154.637 35.4613C153.445 34.8627 152.52 34.0262 151.863 32.9518C151.221 31.8773 150.9 30.6494 150.9 29.268C150.9 27.4261 151.32 25.7684 152.161 24.2949C153.017 22.8214 154.202 21.6702 155.715 20.8414C157.243 20.0125 158.978 19.5981 160.919 19.5981C162.54 19.5981 163.946 19.8974 165.138 20.496C166.346 21.0946 167.27 21.9311 167.912 23.0056C168.57 24.08 168.898 25.3079 168.898 26.6893C168.898 28.5312 168.47 30.1889 167.614 31.6624C166.774 33.136 165.589 34.2871 164.061 35.116C162.547 35.9448 160.82 36.3593 158.879 36.3593ZM159.269 32.5834C160.278 32.5834 161.164 32.3301 161.928 31.8236C162.693 31.3171 163.281 30.6417 163.694 29.7975C164.106 28.938 164.313 27.994 164.313 26.9656C164.313 25.8758 163.977 25.0086 163.304 24.364C162.647 23.704 161.722 23.374 160.53 23.374C159.521 23.374 158.634 23.6272 157.87 24.1337C157.106 24.6402 156.517 25.3233 156.105 26.1828C155.692 27.027 155.486 27.9633 155.486 28.9917C155.486 30.0815 155.814 30.9564 156.471 31.6164C157.144 32.2611 158.076 32.5834 159.269 32.5834Z" fill="white"/>
      <path d="M177.421 36.3593C176.03 36.3593 174.83 36.129 173.821 35.6686C172.812 35.1927 172.04 34.5174 171.505 33.6425C170.97 32.7676 170.703 31.7392 170.703 30.5573C170.703 30.0661 170.764 29.4982 170.886 28.8536L172.675 19.9204H177.214L175.449 28.7845C175.357 29.245 175.311 29.6671 175.311 30.0508C175.311 31.7392 176.198 32.5834 177.971 32.5834C178.934 32.5834 179.69 32.2918 180.241 31.7085C180.806 31.1099 181.227 30.1352 181.502 28.7845L183.267 19.9204H187.738L185.927 29.0608C184.949 33.9264 182.113 36.3593 177.421 36.3593Z" fill="white"/>
      <path d="M204.157 25.0547C204.157 26.5282 203.768 27.8022 202.988 28.8766C202.209 29.9357 201.116 30.7108 199.709 31.202L202.438 36.0369H197.692L195.307 31.7545H193.015L192.166 36.0369H187.627L190.836 19.9204H197.692C199.74 19.9204 201.33 20.3732 202.461 21.2788C203.592 22.1844 204.157 23.443 204.157 25.0547ZM199.572 25.4921C199.572 24.8321 199.35 24.3409 198.907 24.0186C198.464 23.6809 197.845 23.5121 197.05 23.5121H194.665L193.702 28.2319H196.408C197.417 28.2319 198.196 27.994 198.746 27.5182C199.297 27.0424 199.572 26.367 199.572 25.4921Z" fill="white"/>
      <path d="M87.0264 51.2331C86.4734 51.2331 85.971 51.1103 85.5191 50.8647C85.0725 50.6138 84.7216 50.2721 84.4664 49.8396C84.2166 49.4072 84.0916 48.9214 84.0916 48.3821C84.0916 47.8429 84.2166 47.3571 84.4664 46.9247C84.7216 46.4922 85.0725 46.1532 85.5191 45.9076C85.971 45.6567 86.4734 45.5312 87.0264 45.5312C87.5793 45.5312 88.0764 45.654 88.5177 45.8996C88.9643 46.1452 89.3152 46.4869 89.5704 46.9247C89.8255 47.3571 89.9531 47.8429 89.9531 48.3821C89.9531 48.9214 89.8255 49.4099 89.5704 49.8477C89.3152 50.2801 88.9643 50.6191 88.5177 50.8647C88.0764 51.1103 87.5793 51.2331 87.0264 51.2331ZM87.0264 50.7045C87.4676 50.7045 87.8664 50.6058 88.2226 50.4082C88.5788 50.2053 88.8579 49.9277 89.06 49.5754C89.262 49.2177 89.363 48.8199 89.363 48.3821C89.363 47.9444 89.262 47.5493 89.06 47.1969C88.8579 46.8392 88.5788 46.5616 88.2226 46.3641C87.8664 46.1612 87.4676 46.0598 87.0264 46.0598C86.5851 46.0598 86.1837 46.1612 85.8222 46.3641C85.466 46.5616 85.1842 46.8392 84.9768 47.1969C84.7748 47.5493 84.6738 47.9444 84.6738 48.3821C84.6738 48.8199 84.7748 49.2177 84.9768 49.5754C85.1842 49.9277 85.466 50.2053 85.8222 50.4082C86.1837 50.6058 86.5851 50.7045 87.0264 50.7045Z" fill="white"/>
      <path d="M93.387 46.9407C93.7804 46.9407 94.1367 47.0314 94.4556 47.213C94.7746 47.3891 95.0245 47.6401 95.2053 47.9657C95.386 48.2914 95.4764 48.6624 95.4764 49.0789C95.4764 49.5006 95.386 49.8743 95.2053 50.2C95.0245 50.5257 94.7746 50.7793 94.4556 50.9608C94.142 51.137 93.7858 51.2251 93.387 51.2251C93.0467 51.2251 92.7384 51.1557 92.4619 51.0168C92.1908 50.8727 91.9675 50.6645 91.792 50.3922V52.7386H91.2258V46.9727H91.7681V47.8056C91.9382 47.5279 92.1615 47.3144 92.438 47.1649C92.7198 47.0154 93.0361 46.9407 93.387 46.9407ZM93.3471 50.7205C93.6395 50.7205 93.9054 50.6538 94.1446 50.5203C94.3839 50.3815 94.5699 50.1867 94.7029 49.9357C94.8411 49.6848 94.9102 49.3992 94.9102 49.0789C94.9102 48.7585 94.8411 48.4756 94.7029 48.23C94.5699 47.9791 94.3839 47.7842 94.1446 47.6454C93.9054 47.5066 93.6395 47.4372 93.3471 47.4372C93.0494 47.4372 92.7809 47.5066 92.5417 47.6454C92.3077 47.7842 92.1217 47.9791 91.9834 48.23C91.8505 48.4756 91.7841 48.7585 91.7841 49.0789C91.7841 49.3992 91.8505 49.6848 91.9834 49.9357C92.1217 50.1867 92.3077 50.3815 92.5417 50.5203C92.7809 50.6538 93.0494 50.7205 93.3471 50.7205Z" fill="white"/>
      <path d="M99.6596 47.4772H97.2592V51.185H96.693V46.9727H99.6596V47.4772Z" fill="white"/>
      <path d="M101.921 46.9407C102.469 46.9407 102.889 47.0795 103.181 47.3571C103.474 47.6294 103.62 48.0351 103.62 48.5743V51.185H103.078V50.5283C102.95 50.7472 102.761 50.9181 102.512 51.0409C102.267 51.1637 101.975 51.2251 101.634 51.2251C101.166 51.2251 100.794 51.1129 100.518 50.8887C100.241 50.6645 100.103 50.3682 100.103 49.9998C100.103 49.6421 100.231 49.3538 100.486 49.1349C100.746 48.916 101.158 48.8066 101.722 48.8066H103.054V48.5503C103.054 48.1873 102.953 47.9123 102.751 47.7255C102.549 47.5333 102.254 47.4372 101.866 47.4372C101.6 47.4372 101.345 47.4826 101.1 47.5733C100.855 47.6587 100.645 47.7789 100.47 47.9337L100.215 47.5093C100.427 47.3277 100.683 47.1889 100.98 47.0928C101.278 46.9914 101.592 46.9407 101.921 46.9407ZM101.722 50.7766C102.041 50.7766 102.315 50.7045 102.543 50.5604C102.772 50.4109 102.942 50.1973 103.054 49.9197V49.231H101.738C101.02 49.231 100.661 49.4819 100.661 49.9838C100.661 50.2294 100.754 50.4242 100.94 50.5684C101.127 50.7072 101.387 50.7766 101.722 50.7766Z" fill="white"/>
      <path d="M105.127 46.9727H105.694V48.8386H108.333V46.9727H108.899V51.185H108.333V49.3271H105.694V51.185H105.127V46.9727Z" fill="white"/>
      <path d="M110.509 46.9727H111.075V50.3201L113.874 46.9727H114.377V51.185H113.81V47.8376L111.019 51.185H110.509V46.9727Z" fill="white"/>
      <path d="M117.955 48.9908C118.253 49.0602 118.482 49.1803 118.641 49.3511C118.806 49.522 118.888 49.7302 118.888 49.9758C118.888 50.2214 118.803 50.4403 118.633 50.6325C118.468 50.8246 118.242 50.9741 117.955 51.0809C117.668 51.1824 117.352 51.2331 117.006 51.2331C116.703 51.2331 116.405 51.1904 116.113 51.1049C115.821 51.0142 115.565 50.8834 115.347 50.7125L115.539 50.2881C115.73 50.4322 115.954 50.5444 116.209 50.6244C116.464 50.7045 116.722 50.7446 116.982 50.7446C117.37 50.7446 117.687 50.6725 117.931 50.5283C118.181 50.3789 118.306 50.1787 118.306 49.9277C118.306 49.7035 118.205 49.53 118.003 49.4072C117.801 49.2791 117.525 49.215 117.174 49.215H116.456V48.7986H117.142C117.455 48.7986 117.708 48.7398 117.899 48.6224C118.091 48.4996 118.186 48.3368 118.186 48.1339C118.186 47.9097 118.077 47.7335 117.86 47.6054C117.647 47.4772 117.368 47.4132 117.022 47.4132C116.57 47.4132 116.124 47.5279 115.682 47.7575L115.523 47.3171C116.023 47.0555 116.541 46.9247 117.078 46.9247C117.397 46.9247 117.684 46.9727 117.939 47.0688C118.2 47.1596 118.402 47.2904 118.545 47.4612C118.694 47.632 118.769 47.8296 118.769 48.0538C118.769 48.2674 118.694 48.4569 118.545 48.6224C118.402 48.7879 118.205 48.9107 117.955 48.9908Z" fill="white"/>
      <path d="M121.617 46.9407C122.165 46.9407 122.585 47.0795 122.877 47.3571C123.17 47.6294 123.316 48.0351 123.316 48.5743V51.185H122.773V50.5283C122.646 50.7472 122.457 50.9181 122.207 51.0409C121.963 51.1637 121.67 51.2251 121.33 51.2251C120.862 51.2251 120.49 51.1129 120.214 50.8887C119.937 50.6645 119.799 50.3682 119.799 49.9998C119.799 49.6421 119.926 49.3538 120.182 49.1349C120.442 48.916 120.854 48.8066 121.418 48.8066H122.75V48.5503C122.75 48.1873 122.649 47.9123 122.446 47.7255C122.244 47.5333 121.949 47.4372 121.561 47.4372C121.295 47.4372 121.04 47.4826 120.796 47.5733C120.551 47.6587 120.341 47.7789 120.166 47.9337L119.91 47.5093C120.123 47.3277 120.378 47.1889 120.676 47.0928C120.974 46.9914 121.287 46.9407 121.617 46.9407ZM121.418 50.7766C121.737 50.7766 122.011 50.7045 122.239 50.5604C122.468 50.4109 122.638 50.1973 122.75 49.9197V49.231H121.434C120.716 49.231 120.357 49.4819 120.357 49.9838C120.357 50.2294 120.45 50.4242 120.636 50.5684C120.822 50.7072 121.083 50.7766 121.418 50.7766Z" fill="white"/>
      <path d="M129.193 50.6885V52.2421H128.659V51.185H124.823V46.9727H125.389V50.6885H127.949V46.9727H128.515V50.6885H129.193Z" fill="white"/>
      <path d="M130.275 46.9727H130.841V50.3201L133.64 46.9727H134.142V51.185H133.576V47.8376L130.785 51.185H130.275V46.9727Z" fill="white"/>
      <path d="M138.987 46.9727V51.185H138.469V49.7916H136.993L136.02 51.185H135.406L136.451 49.7115C136.127 49.6208 135.877 49.4659 135.701 49.247C135.526 49.0281 135.438 48.7505 135.438 48.4142C135.438 47.9444 135.598 47.5867 135.917 47.3411C136.236 47.0955 136.672 46.9727 137.225 46.9727H138.987ZM136.012 48.4302C136.012 49.0548 136.408 49.3672 137.201 49.3672H138.469V47.4772H137.24C136.422 47.4772 136.012 47.7949 136.012 48.4302Z" fill="white"/>
      <path d="M146.453 46.9727V51.185H145.887V47.4772H143.255V51.185H142.689V46.9727H146.453Z" fill="white"/>
      <path d="M149.793 51.2251C149.389 51.2251 149.025 51.1343 148.7 50.9528C148.376 50.7659 148.121 50.5097 147.935 50.184C147.749 49.8583 147.656 49.4899 147.656 49.0789C147.656 48.6678 147.749 48.2994 147.935 47.9737C148.121 47.6481 148.376 47.3945 148.7 47.213C149.025 47.0314 149.389 46.9407 149.793 46.9407C150.197 46.9407 150.561 47.0314 150.885 47.213C151.21 47.3945 151.462 47.6481 151.643 47.9737C151.829 48.2994 151.922 48.6678 151.922 49.0789C151.922 49.4899 151.829 49.8583 151.643 50.184C151.462 50.5097 151.21 50.7659 150.885 50.9528C150.561 51.1343 150.197 51.2251 149.793 51.2251ZM149.793 50.7205C150.091 50.7205 150.356 50.6538 150.59 50.5203C150.83 50.3815 151.016 50.1867 151.149 49.9357C151.282 49.6848 151.348 49.3992 151.348 49.0789C151.348 48.7585 151.282 48.4729 151.149 48.222C151.016 47.9711 150.83 47.7789 150.59 47.6454C150.356 47.5066 150.091 47.4372 149.793 47.4372C149.495 47.4372 149.227 47.5066 148.987 47.6454C148.753 47.7789 148.567 47.9711 148.429 48.222C148.296 48.4729 148.23 48.7585 148.23 49.0789C148.23 49.3992 148.296 49.6848 148.429 49.9357C148.567 50.1867 148.753 50.3815 148.987 50.5203C149.227 50.6538 149.495 50.7205 149.793 50.7205Z" fill="white"/>
      <path d="M155.608 51.185L154.276 49.4232L152.936 51.185H152.298L153.957 49.0228L152.378 46.9727H153.016L154.276 48.6224L155.536 46.9727H156.158L154.579 49.0228L156.254 51.185H155.608Z" fill="white"/>
      <path d="M158.765 51.2251C158.361 51.2251 157.996 51.1343 157.672 50.9528C157.348 50.7659 157.093 50.5097 156.906 50.184C156.72 49.8583 156.627 49.4899 156.627 49.0789C156.627 48.6678 156.72 48.2994 156.906 47.9737C157.093 47.6481 157.348 47.3945 157.672 47.213C157.996 47.0314 158.361 46.9407 158.765 46.9407C159.169 46.9407 159.533 47.0314 159.857 47.213C160.181 47.3945 160.434 47.6481 160.615 47.9737C160.801 48.2994 160.894 48.6678 160.894 49.0789C160.894 49.4899 160.801 49.8583 160.615 50.184C160.434 50.5097 160.181 50.7659 159.857 50.9528C159.533 51.1343 159.169 51.2251 158.765 51.2251ZM158.765 50.7205C159.062 50.7205 159.328 50.6538 159.562 50.5203C159.801 50.3815 159.987 50.1867 160.12 49.9357C160.253 49.6848 160.32 49.3992 160.32 49.0789C160.32 48.7585 160.253 48.4729 160.12 48.222C159.987 47.9711 159.801 47.7789 159.562 47.6454C159.328 47.5066 159.062 47.4372 158.765 47.4372C158.467 47.4372 158.198 47.5066 157.959 47.6454C157.725 47.7789 157.539 47.9711 157.401 48.222C157.268 48.4729 157.202 48.7585 157.202 49.0789C157.202 49.3992 157.268 49.6848 157.401 49.9357C157.539 50.1867 157.725 50.3815 157.959 50.5203C158.198 50.6538 158.467 50.7205 158.765 50.7205Z" fill="white"/>
      <path d="M166.172 50.6885V52.2021H165.637V51.185H161.881V52.2021H161.347V50.6885H161.586C161.868 50.6725 162.059 50.4643 162.16 50.0639C162.261 49.6635 162.331 49.1029 162.368 48.3821L162.424 46.9727H165.518V50.6885H166.172ZM162.886 48.4142C162.86 49.0121 162.809 49.506 162.735 49.8957C162.66 50.2801 162.527 50.5444 162.336 50.6885H164.952V47.4772H162.934L162.886 48.4142Z" fill="white"/>
      <path d="M169.006 51.2251C168.602 51.2251 168.238 51.1343 167.913 50.9528C167.589 50.7659 167.334 50.5097 167.148 50.184C166.962 49.8583 166.868 49.4899 166.868 49.0789C166.868 48.6678 166.962 48.2994 167.148 47.9737C167.334 47.6481 167.589 47.3945 167.913 47.213C168.238 47.0314 168.602 46.9407 169.006 46.9407C169.41 46.9407 169.774 47.0314 170.098 47.213C170.423 47.3945 170.675 47.6481 170.856 47.9737C171.042 48.2994 171.135 48.6678 171.135 49.0789C171.135 49.4899 171.042 49.8583 170.856 50.184C170.675 50.5097 170.423 50.7659 170.098 50.9528C169.774 51.1343 169.41 51.2251 169.006 51.2251ZM169.006 50.7205C169.303 50.7205 169.569 50.6538 169.803 50.5203C170.042 50.3815 170.229 50.1867 170.361 49.9357C170.494 49.6848 170.561 49.3992 170.561 49.0789C170.561 48.7585 170.494 48.4729 170.361 48.222C170.229 47.9711 170.042 47.7789 169.803 47.6454C169.569 47.5066 169.303 47.4372 169.006 47.4372C168.708 47.4372 168.44 47.5066 168.2 47.6454C167.966 47.7789 167.78 47.9711 167.642 48.222C167.509 48.4729 167.443 48.7585 167.443 49.0789C167.443 49.3992 167.509 49.6848 167.642 49.9357C167.78 50.1867 167.966 50.3815 168.2 50.5203C168.44 50.6538 168.708 50.7205 169.006 50.7205Z" fill="white"/>
      <path d="M175.017 49.0068C175.586 49.1403 175.87 49.4846 175.87 50.0398C175.87 50.4082 175.734 50.6912 175.463 50.8887C175.192 51.0863 174.788 51.185 174.251 51.185H172.345V46.9727H174.195C174.674 46.9727 175.049 47.0661 175.32 47.253C175.591 47.4398 175.727 47.7068 175.727 48.0538C175.727 48.2834 175.663 48.4809 175.535 48.6464C175.413 48.8066 175.24 48.9267 175.017 49.0068ZM172.895 48.8466H174.155C174.48 48.8466 174.727 48.7852 174.897 48.6624C175.073 48.5396 175.16 48.3608 175.16 48.1259C175.16 47.891 175.073 47.7148 174.897 47.5973C174.727 47.4799 174.48 47.4212 174.155 47.4212H172.895V48.8466ZM174.227 50.7366C174.589 50.7366 174.86 50.6778 175.041 50.5604C175.221 50.4429 175.312 50.2587 175.312 50.0078C175.312 49.7569 175.229 49.5727 175.065 49.4552C174.9 49.3325 174.639 49.2711 174.283 49.2711H172.895V50.7366H174.227Z" fill="white"/>
      <path d="M181.956 49.0068C182.525 49.1403 182.809 49.4846 182.809 50.0398C182.809 50.4082 182.674 50.6912 182.402 50.8887C182.131 51.0863 181.727 51.185 181.19 51.185H179.284V46.9727H181.134C181.613 46.9727 181.988 47.0661 182.259 47.253C182.53 47.4398 182.666 47.7068 182.666 48.0538C182.666 48.2834 182.602 48.4809 182.474 48.6464C182.352 48.8066 182.179 48.9267 181.956 49.0068ZM179.835 48.8466H181.095C181.419 48.8466 181.666 48.7852 181.836 48.6624C182.012 48.5396 182.099 48.3608 182.099 48.1259C182.099 47.891 182.012 47.7148 181.836 47.5973C181.666 47.4799 181.419 47.4212 181.095 47.4212H179.835V48.8466ZM181.166 50.7366C181.528 50.7366 181.799 50.6778 181.98 50.5604C182.161 50.4429 182.251 50.2587 182.251 50.0078C182.251 49.7569 182.168 49.5727 182.004 49.4552C181.839 49.3325 181.578 49.2711 181.222 49.2711H179.835V50.7366H181.166Z" fill="white"/>
      <path d="M189.19 47.4772H186.79V51.185H186.223V46.9727H189.19V47.4772Z" fill="white"/>
      <path d="M191.544 51.2251C191.14 51.2251 190.776 51.1343 190.452 50.9528C190.127 50.7659 189.872 50.5097 189.686 50.184C189.5 49.8583 189.407 49.4899 189.407 49.0789C189.407 48.6678 189.5 48.2994 189.686 47.9737C189.872 47.6481 190.127 47.3945 190.452 47.213C190.776 47.0314 191.14 46.9407 191.544 46.9407C191.948 46.9407 192.312 47.0314 192.637 47.213C192.961 47.3945 193.214 47.6481 193.394 47.9737C193.58 48.2994 193.673 48.6678 193.673 49.0789C193.673 49.4899 193.58 49.8583 193.394 50.184C193.214 50.5097 192.961 50.7659 192.637 50.9528C192.312 51.1343 191.948 51.2251 191.544 51.2251ZM191.544 50.7205C191.842 50.7205 192.108 50.6538 192.342 50.5203C192.581 50.3815 192.767 50.1867 192.9 49.9357C193.033 49.6848 193.099 49.3992 193.099 49.0789C193.099 48.7585 193.033 48.4729 192.9 48.222C192.767 47.9711 192.581 47.7789 192.342 47.6454C192.108 47.5066 191.842 47.4372 191.544 47.4372C191.246 47.4372 190.978 47.5066 190.739 47.6454C190.505 47.7789 190.319 47.9711 190.18 48.222C190.047 48.4729 189.981 48.7585 189.981 49.0789C189.981 49.3992 190.047 49.6848 190.18 49.9357C190.319 50.1867 190.505 50.3815 190.739 50.5203C190.978 50.6538 191.246 50.7205 191.544 50.7205Z" fill="white"/>
      <path d="M197.045 46.9407C197.438 46.9407 197.794 47.0314 198.113 47.213C198.432 47.3891 198.682 47.6401 198.863 47.9657C199.044 48.2914 199.134 48.6624 199.134 49.0789C199.134 49.5006 199.044 49.8743 198.863 50.2C198.682 50.5257 198.432 50.7793 198.113 50.9608C197.8 51.137 197.443 51.2251 197.045 51.2251C196.704 51.2251 196.396 51.1557 196.12 51.0168C195.848 50.8727 195.625 50.6645 195.45 50.3922V52.7386H194.884V46.9727H195.426V47.8056C195.596 47.5279 195.819 47.3144 196.096 47.1649C196.377 47.0154 196.694 46.9407 197.045 46.9407ZM197.005 50.7205C197.297 50.7205 197.563 50.6538 197.802 50.5203C198.042 50.3815 198.228 50.1867 198.361 49.9357C198.499 49.6848 198.568 49.3992 198.568 49.0789C198.568 48.7585 198.499 48.4756 198.361 48.23C198.228 47.9791 198.042 47.7842 197.802 47.6454C197.563 47.5066 197.297 47.4372 197.005 47.4372C196.707 47.4372 196.439 47.5066 196.199 47.6454C195.965 47.7842 195.779 47.9791 195.641 48.23C195.508 48.4756 195.442 48.7585 195.442 49.0789C195.442 49.3992 195.508 49.6848 195.641 49.9357C195.779 50.1867 195.965 50.3815 196.199 50.5203C196.439 50.6538 196.707 50.7205 197.005 50.7205Z" fill="white"/>
      <path d="M202.113 48.4622C202.639 48.4676 203.041 48.585 203.317 48.8146C203.594 49.0442 203.732 49.3752 203.732 49.8076C203.732 50.2561 203.583 50.6004 203.285 50.8407C202.988 51.0809 202.562 51.1984 202.009 51.193L200.351 51.185V46.9727H200.917V48.4462L202.113 48.4622ZM204.434 46.9727H205V51.185H204.434V46.9727ZM201.978 50.7606C202.366 50.7659 202.658 50.6885 202.855 50.5283C203.057 50.3628 203.158 50.1226 203.158 49.8076C203.158 49.498 203.059 49.2684 202.863 49.1189C202.666 48.9694 202.371 48.892 201.978 48.8867L200.917 48.8706V50.7446L201.978 50.7606Z" fill="white"/>
    </g>
    
  </symbol>
</symbol></svg>